<svg width="409" height="47" viewBox="0 0 409 47" fill="none" xmlns="http://www.w3.org/2000/svg">
<g clip-path="url(#clip0_300_227)">
<path d="M214.689 44.8998C212.379 44.3098 206.699 46.4198 207.499 42.6098C207.659 40.7298 207.739 38.8598 207.709 36.9698C207.659 36.3098 208.409 36.3398 208.399 35.7598C209.299 34.5098 211.519 36.1698 212.909 35.8598C214.049 35.9198 215.999 34.9598 216.619 36.3398C216.349 37.9298 216.889 45.6198 214.689 44.8998Z" fill="#B9BEC1"/>
<path d="M172.419 24.4696C175.179 24.6096 177.949 24.2396 180.709 24.1796C180.869 23.1496 182.049 20.4296 180.329 20.7496C172.739 20.7396 165.159 20.2196 157.569 20.6196C153.829 20.4496 153.949 20.6796 154.089 24.3296C160.209 23.9196 166.309 24.5196 172.419 24.4696ZM184.379 30.6696C184.399 30.7396 184.409 30.8096 184.429 30.8896C184.429 30.7096 184.429 30.5296 184.419 30.3496C184.409 30.4596 184.399 30.5596 184.379 30.6696ZM184.199 36.4796C184.279 36.7496 184.279 37.0296 184.289 37.3096C184.399 36.6796 184.309 36.0096 184.319 35.3696C184.279 35.7396 184.239 36.1096 184.199 36.4796ZM156.059 37.6296C161.839 38.7996 167.839 38.5396 173.719 38.5996C178.029 38.0396 180.329 40.4796 180.999 35.0196C180.989 35.0596 180.979 35.0896 180.979 35.1196C180.999 35.0396 181.019 34.9696 181.029 34.8896C181.029 34.8996 181.029 34.8996 181.019 34.9096C182.229 32.7996 172.499 34.7596 170.759 34.2096C166.549 34.1896 162.469 34.2996 158.329 34.9496C157.309 34.9296 156.349 35.1996 155.359 35.4196C155.629 36.2896 154.809 37.8296 156.059 37.6296ZM152.499 39.2696C152.599 39.2296 152.629 39.0396 152.529 38.9796C152.519 39.0796 152.509 39.1796 152.499 39.2696ZM151.339 43.2996C150.029 42.5196 151.169 39.3996 150.639 37.9896C150.469 37.0096 151.269 36.3096 150.949 35.2596C150.379 34.6596 150.099 33.0496 151.079 32.6996C150.159 31.7096 151.269 30.2096 150.469 29.1296C150.149 28.0796 151.239 27.5696 151.029 26.4796C151.489 24.9196 150.289 23.4096 150.709 21.9596C151.589 20.0196 150.449 17.5596 151.369 15.5496C150.259 14.1796 151.319 12.5396 151.329 10.9396C151.029 9.99959 151.329 8.18959 152.639 9.10959C153.719 8.27959 155.459 8.86959 156.779 8.70959C157.919 8.44959 159.199 8.61959 160.369 8.44959C161.259 8.31959 161.889 8.96959 162.789 8.76959C163.339 8.23959 164.069 8.64959 164.739 8.68959C165.909 8.67959 167.019 8.90959 168.189 8.76959C168.159 8.77959 168.119 8.77959 168.089 8.78959C168.839 8.75959 169.579 9.21959 170.319 8.78959C171.039 8.96959 171.419 8.67959 172.059 8.49959C173.249 8.94959 174.489 8.53959 175.619 8.80959C176.309 9.02959 176.689 8.39959 177.349 8.48959C178.469 8.79959 179.559 8.39959 180.659 8.41959C181.429 8.94959 182.069 8.32959 182.869 8.40959C183.459 8.71959 184.119 8.41959 184.709 8.57959C186.889 7.92959 185.719 12.6396 185.829 13.8496C185.909 16.1796 186.349 18.5396 185.729 20.8196C186.529 22.1896 185.969 23.9696 186.019 25.4996C185.739 27.9096 186.029 30.2296 185.999 32.6296C185.699 34.8896 186.339 41.2096 184.769 42.4296C173.649 42.5796 162.469 43.0896 151.339 43.2996Z" fill="#F5E07D"/>
<path d="M118.78 33.0304C118.68 32.0904 118.52 29.8504 120.03 30.2404C120.35 30.0504 120.81 30.0904 121.06 30.4104C121.39 31.1504 121.19 32.2304 120.95 32.9904C120.52 33.3904 119.06 33.8104 118.78 33.0304Z" fill="#F7BEAC"/>
<path d="M136.37 36.5602C133.56 36.7002 133.98 35.1302 134.55 33.0302C135.12 31.8302 136.93 32.2402 137.99 32.4402C138.87 32.9702 138.4 34.1702 138.45 35.0102C138.69 36.3702 137.56 36.9502 136.37 36.5602Z" fill="#F7BEAC"/>
<path d="M98.83 36.6095C98.06 36.5395 97.29 36.2795 96.7 35.7695C95.09 36.0995 95.84 33.8895 95.56 33.4495C94.29 34.9995 91.84 35.2395 90 34.8895C85.45 32.6295 88.96 26.9395 90.1 23.5195C93.13 16.3195 95.91 24.2195 96.72 27.9395C97.47 29.2195 98.13 22.8995 100.27 22.7595C101.05 21.4895 102.21 21.0495 103.05 22.5695C104.13 24.4395 105.58 26.1495 106.15 28.2695C106.44 30.2895 108.45 33.0795 106.92 34.8495C104.38 35.8895 101.66 36.9495 98.83 36.6095Z" fill="#B9BEC1"/>
<path d="M55.8602 46.7901C53.0502 45.9301 49.9102 46.8001 47.0202 46.5401C46.3502 46.3901 45.2802 46.4901 45.0102 45.7201C43.6002 45.3501 41.8602 45.6901 40.6102 44.9901C40.2002 42.7601 41.1202 40.2601 40.6202 37.9201C40.6402 36.2301 39.4002 30.6801 40.8702 29.9401C42.9402 29.3301 45.6302 29.2601 47.6002 30.1601C50.4102 30.5201 53.2502 29.9401 55.6602 31.0101C57.0702 31.1401 58.3402 31.2601 59.5802 30.8001C61.5602 31.2201 63.6602 31.1601 65.6002 31.6301C65.9102 31.8501 66.0102 32.2801 65.8502 32.6201C65.4802 35.7701 65.3502 38.9401 64.9302 42.1001C64.8802 43.7401 65.6802 46.3201 63.1102 46.0601C61.2602 46.2201 59.3402 46.3001 57.5102 46.3501C57.1902 46.9001 56.4102 46.8901 55.8602 46.7901Z" fill="#F5E07D"/>
<path d="M25.0401 14.21C19.1001 13.27 17.5801 16.71 18.1901 10.01C18.4801 8.62001 17.3801 6.23001 18.7901 5.42001C21.2101 5.44001 24.5901 4.48001 26.5601 5.98001C26.5801 7.71001 24.3201 8.87001 23.6801 10.21C24.3201 11.56 25.7001 12.46 26.3801 13.75C26.5501 14.55 25.4001 14.94 25.0401 14.21Z" fill="#F39F82"/>
<path d="M132.38 32.3702C132.24 35.1802 132.07 38.0602 131.76 40.8302C130.95 41.9202 129.34 40.9802 128.21 41.1002C127.25 40.9502 126.13 41.4902 125.28 40.9702C124.63 38.2602 125.28 35.1402 125.26 32.3102C125.48 29.9002 128.53 30.7602 130.15 31.0702C131.02 31.2602 132.5 31.0502 132.38 32.3702Z" fill="#F39F82"/>
<path d="M25.0001 27.1001C23.4701 26.1801 20.9701 27.0501 19.1301 26.8701C19.1401 26.8701 19.1401 26.8701 19.1501 26.8701C17.2801 27.2501 14.4901 26.2301 13.0801 27.4901C13.0801 28.6701 12.5301 30.1501 13.2401 31.1901C14.6201 32.3401 20.0601 31.7401 22.1601 31.7801C22.1501 31.7801 22.1401 31.7801 22.1301 31.7801C25.2501 32.0801 25.0701 31.3201 25.1401 28.5901C25.1401 28.6101 25.1301 28.6301 25.1301 28.6501C25.1901 28.1401 25.5101 27.4401 25.0001 27.1001ZM23.8801 28.6401C23.9401 29.2201 23.7501 29.7801 23.7601 30.3701C23.5701 30.3801 23.4201 30.4601 23.2801 30.5901C21.4001 30.2901 19.3901 30.6001 17.4301 30.5701C16.6701 29.6701 14.9901 30.7901 14.1401 30.2701C14.0301 29.5501 14.5201 28.9601 14.2501 28.2401C17.5001 28.1501 20.7501 28.1301 24.0001 27.9801C23.9501 28.2001 23.8901 28.4201 23.8801 28.6401Z" fill="#27456A"/>
<path d="M16.11 33.63C15.06 33.62 12.92 32.65 12.81 34.32C12.84 35.22 12.33 37.19 13.51 37.39C14.66 37.1 13.76 35.51 14.03 34.68C14.73 34.68 15.51 35.04 16.16 34.77C16.59 34.51 16.57 33.84 16.11 33.63Z" fill="#27456A"/>
<path d="M10.3097 33.0301C8.5797 32.8301 8.3097 33.7101 8.6097 35.2101C8.6097 35.1801 8.6097 35.1601 8.6097 35.1301C8.6797 35.7501 8.3097 36.8601 9.1997 36.9701C9.5697 36.9901 9.8797 36.6701 9.8597 36.2901C9.8297 35.6301 9.8897 34.9701 9.8097 34.3201C10.4097 34.1801 11.2897 34.6401 11.6497 33.9801C11.9997 33.1401 10.9397 32.9301 10.3097 33.0301Z" fill="#27456A"/>
<path d="M6.48003 33.0803C4.10003 32.5003 3.96003 34.2603 4.37003 36.1203V36.1103C4.35003 36.5303 4.59003 36.9903 5.06003 36.9503C6.24003 36.6703 5.20003 35.1403 5.48003 34.3203C5.99003 34.3003 6.63004 34.5603 7.03004 34.1503C7.41004 33.7403 7.03003 33.0003 6.48003 33.0803Z" fill="#27456A"/>
<path d="M48.8002 33.1195C49.6102 33.1995 51.3802 33.7795 51.6902 32.7495C51.5202 31.6595 49.9602 32.3995 49.2102 32.0695C48.5602 31.8595 48.1802 32.8295 48.8002 33.1195Z" fill="#27456A"/>
<path d="M56.8996 32.7597C56.9996 31.8697 53.7596 31.8197 53.8896 32.7897C53.8896 32.7797 53.8896 32.7797 53.8896 32.7697C53.8596 33.2097 54.3996 33.5197 54.7596 33.2797C55.4196 33.1597 56.7396 33.7097 56.8996 32.7597Z" fill="#27456A"/>
<path d="M53.5797 35.6495C53.5897 35.0195 52.9097 35.0595 52.4597 35.0295C52.4797 35.0295 52.5097 35.0395 52.5297 35.0395C51.9397 35.0095 51.0197 34.6495 50.7197 35.3895C50.3697 35.9795 51.1997 36.5895 51.6397 36.0595C52.2697 36.0595 53.4597 36.5795 53.5797 35.6495Z" fill="#27456A"/>
<path d="M57.0398 36.5298C57.0298 36.5298 57.0198 36.5298 57.0098 36.5298C57.0198 36.5198 57.0298 36.5298 57.0398 36.5298Z" fill="#27456A"/>
<path d="M59.1203 35.9496C59.0003 34.9596 57.5303 35.4696 56.8503 35.4196C56.2503 35.6196 56.4603 36.5596 57.0803 36.5196C57.0703 36.5196 57.0603 36.5196 57.0603 36.5196C57.1103 36.5196 57.1503 36.5196 57.2003 36.5096C57.1903 36.5096 57.1803 36.5096 57.1603 36.5096C57.1803 36.5096 57.1903 36.4996 57.2103 36.4996C57.2103 36.4996 57.2103 36.4996 57.2003 36.4996C57.8103 36.3796 58.9903 36.8496 59.1203 35.9496Z" fill="#27456A"/>
<path d="M59.8296 33.1697C59.8396 33.1797 59.8696 33.2097 59.8696 33.2097C60.7496 33.4797 61.8396 33.2397 62.7996 33.2897C62.7796 33.2897 62.7496 33.2897 62.7296 33.2897C63.8696 33.3897 63.5596 31.8397 62.5196 32.1797C61.7196 32.3397 59.0496 31.6097 59.8296 33.1697Z" fill="#27456A"/>
<path d="M65.2001 34.8898C64.3501 35.0498 62.4101 34.1898 62.4701 35.6198V35.6298C62.6601 36.5698 64.3701 35.6998 65.1901 36.0198C66.0001 36.0998 66.0101 34.8198 65.2001 34.8898Z" fill="#27456A"/>
<path d="M62.46 35.5996C62.46 35.6096 62.46 35.6096 62.46 35.6096C62.47 35.6096 62.46 35.6096 62.46 35.5996Z" fill="#27456A"/>
<path d="M61.8894 38.3801C60.9494 38.6001 59.5294 37.8501 58.8794 38.7001C58.7194 39.0401 58.9294 39.4401 59.2994 39.5101C60.2194 39.1501 62.4594 40.2201 62.5794 38.7901C62.4994 38.4801 62.1894 38.3001 61.8894 38.3801Z" fill="#27456A"/>
<path d="M55.58 38.0898C54.75 38.2098 52.22 37.5698 52.81 39.1098C53.53 39.5898 54.64 38.9998 55.54 39.2098C56.27 39.2498 56.31 38.1098 55.58 38.0898Z" fill="#27456A"/>
<path d="M50.1496 39.5799C50.1296 39.5799 50.1096 39.5799 50.0896 39.5799C49.5296 39.5899 48.9596 39.5499 48.3996 39.4999C47.7496 39.2699 46.9296 39.7999 47.4796 40.4599C48.2296 40.8599 49.3196 40.5799 50.1896 40.7199C50.9796 40.7199 50.9196 39.5099 50.1496 39.5799Z" fill="#27456A"/>
<path d="M49.48 37.8101C50.21 37.8401 50.25 36.6901 49.52 36.6801C48.65 36.9101 46.74 36.0901 46.54 37.3001C46.92 38.3401 48.58 37.5601 49.48 37.8101Z" fill="#27456A"/>
<path d="M90.8097 26.1501C90.8397 25.1301 90.7197 24.1101 90.7797 23.0801C90.7797 23.1101 90.7797 23.1301 90.7797 23.1601C91.3797 20.8701 88.7397 21.7601 87.3897 21.5301C87.5097 20.4701 87.8997 18.9601 87.3797 17.8501C88.4897 16.6001 87.2397 14.9901 87.4797 13.5701C88.2597 12.9201 87.8097 12.0701 87.2697 11.6101C87.2897 11.2001 87.1897 10.6701 87.3597 10.3301C88.6897 9.39014 87.0297 7.59014 87.5297 6.22014C89.1597 5.55014 86.5897 2.60014 87.4597 0.610141C87.5097 -0.259859 86.2497 -0.149859 86.2897 0.680141C85.7697 0.760141 85.0797 0.750141 84.7397 1.21014C84.1297 0.750141 82.4997 0.840141 82.6697 1.88014C79.5497 1.23014 79.4397 3.49014 77.9197 2.78014C76.5097 2.34014 75.7897 3.49014 74.7397 3.80014C74.1697 3.45014 72.8597 3.69014 73.1097 4.56014C72.2197 5.41014 69.8497 3.91014 70.0697 5.74014C70.0297 5.76014 69.9797 5.78014 69.9297 5.80014C69.6297 5.91014 69.3097 6.03014 68.9897 6.11014C68.4997 5.21014 66.0897 5.63014 66.1297 6.74014C64.9997 7.16014 63.8197 7.31014 62.6997 7.49014C61.5697 8.12014 60.0697 7.46014 59.1597 8.58014C58.5997 9.00014 58.1797 8.51014 57.5597 8.66014C57.0897 8.76014 56.6497 8.97014 56.2497 9.23014C55.3297 10.7701 54.6597 9.86014 53.3897 10.3601C52.7997 11.5001 52.0497 11.0701 51.0797 11.0601C50.2597 11.1701 49.9297 11.9501 49.1597 12.1301C48.4697 12.6501 46.4797 12.4801 46.7297 13.6301C46.9197 18.4301 46.5597 23.4501 47.0797 28.1101C46.1497 28.4101 44.0397 27.1301 43.9697 28.6501C44.4197 32.1701 44.2397 35.9101 44.5897 39.5101C44.5897 39.5501 44.5997 39.5901 44.5997 39.6301C44.5997 39.6201 44.5997 39.6101 44.5997 39.6001C44.6097 39.7401 44.6197 39.8801 44.6297 40.0101C44.6297 40.0001 44.6297 40.0001 44.6297 39.9901C44.6897 40.5601 44.6097 41.2401 44.8997 41.6901C44.7797 42.2101 44.4897 43.0201 45.0797 43.3501C45.5697 43.5801 45.9697 42.8401 46.3997 43.3701C50.3397 43.0501 54.5097 44.4301 58.3897 43.1401C61.5797 43.1701 64.9797 43.8001 68.0497 43.3201C69.2597 44.0501 69.0197 42.0001 69.1297 41.3101C74.8297 41.0701 80.4697 41.6301 86.1597 41.5101C86.5797 41.4401 86.9897 41.4101 87.4097 41.4401C87.5997 40.7901 88.0697 39.3401 87.1997 39.0201C88.0997 35.9101 87.0297 37.1901 87.0597 34.3701C86.8697 33.5101 87.8297 33.0601 87.6697 32.1301C87.6597 31.7301 87.7397 31.2701 87.4997 30.9301C87.3197 30.7101 87.0397 30.7301 87.1397 30.3901V30.4001C87.1397 29.8401 87.1397 29.4501 87.5797 29.0801C87.8697 28.4401 87.7397 27.7001 87.7197 27.0201C88.7297 26.8501 90.9897 27.8501 90.8097 26.1501ZM67.4697 42.4201C66.9497 42.5401 66.4697 42.3201 65.9797 42.1801C65.1397 42.2201 64.4197 42.4701 63.6197 41.9701C62.8997 42.0001 62.3397 42.4601 61.5297 42.2201C60.4397 41.2001 59.1297 42.6101 57.8997 41.8501C57.4197 41.6701 57.2297 42.1901 57.0397 42.4201C55.2897 42.6901 53.7697 41.7301 52.1997 42.5501C51.9597 41.3701 50.2797 42.2501 49.4497 42.1301C48.2697 42.3201 47.1797 42.0101 45.9897 42.0401C46.0397 41.8901 46.0197 41.7101 45.9497 41.5901C45.9497 41.5901 45.9497 41.5901 45.9597 41.6001C45.9297 41.5501 45.8997 41.5201 45.8697 41.4801C45.8697 41.4801 45.8597 41.4701 45.8497 41.4601C45.8397 40.4301 45.4897 39.2101 45.8597 38.1401C46.0797 37.5001 45.4197 37.2101 45.5297 36.6301C45.9397 36.1501 46.1497 34.8701 45.4297 34.5801C45.0997 33.5001 45.9197 32.8601 45.7397 31.8301C45.4297 31.0801 45.1097 30.4401 45.2197 29.5501C52.2997 28.4801 60.6997 30.3301 68.1397 29.5201C68.0597 30.4401 68.1197 31.4201 68.1597 32.3601V32.3701C68.0697 34.3401 67.9897 36.3301 67.9997 38.3201C67.9997 38.3101 67.9997 38.3001 67.9997 38.2901C67.9997 38.3301 67.9997 38.3801 67.9897 38.4201C67.9897 38.3901 67.9897 38.3701 67.9897 38.3501C67.8697 39.7201 68.2297 41.1101 67.8797 42.4501C67.7497 42.3801 67.6097 42.3701 67.4697 42.4201ZM79.9797 39.9001C79.1197 40.6101 78.3697 40.1801 77.4597 39.9001C77.1497 39.8801 76.8397 40.1001 76.7897 40.4101C76.3797 40.4501 75.9497 40.4501 75.5397 40.4101C75.6297 39.4901 75.5997 38.6501 75.4897 37.7601C75.4897 37.7601 75.4897 37.7601 75.4897 37.7701C75.7797 36.3001 75.2597 35.0101 75.7797 33.5401C75.6697 32.3701 75.3697 31.2301 75.4897 29.9501C76.3097 29.8701 77.1197 30.0301 77.9497 30.0201C77.9397 30.0201 77.9297 30.0201 77.9197 30.0201C78.9197 30.0401 79.9297 30.1501 80.9197 30.0401C80.8697 33.3601 80.5997 36.5901 80.5097 39.8901C80.3297 39.8801 80.1497 39.8701 79.9797 39.9001ZM85.2197 40.5101C84.0397 39.7701 83.0097 40.5001 81.6097 40.3701C81.7897 38.9301 81.5697 37.5601 81.8197 36.1501C82.2497 35.8901 82.1697 35.3301 81.9497 34.9701C81.7197 33.0301 82.9497 33.8701 81.9697 31.7001C81.8197 30.7501 82.6697 29.3001 81.4497 28.8801C79.2897 29.0601 77.0897 28.7801 74.9197 28.8001C74.3497 28.7701 73.9997 29.4701 74.3697 29.9101C74.3497 32.0001 74.5597 34.1001 74.3297 36.2001C74.3297 36.2001 74.3297 36.2001 74.3297 36.1901C74.3197 37.4401 74.5097 38.6801 74.4497 39.9401C73.8897 39.9201 73.4197 40.2601 72.8297 40.1001C72.6697 39.7601 72.2697 39.6901 71.9297 39.6901C71.0497 39.8001 70.2997 40.3501 69.3197 40.1801C69.3297 40.1201 69.3497 40.0601 69.3597 39.9901V40.0001C69.6697 39.3801 69.0897 39.0501 69.1097 38.5301C69.1097 38.5401 69.1097 38.5601 69.1097 38.5701C69.1197 37.7701 69.9097 37.0001 69.4497 36.1401C68.5897 35.4001 69.2997 34.0801 69.7297 33.2901C69.8097 32.8801 69.7497 32.3101 69.2797 32.1701C68.8597 31.2601 70.2197 28.3101 68.6197 28.7001C67.4197 28.0201 65.5997 28.5701 64.1897 28.3001C63.6497 28.8801 62.7997 27.9701 62.2797 28.6501C61.2397 28.7801 59.9897 27.6601 59.0497 28.5401C57.9897 28.6001 57.2297 27.7901 56.2597 28.3601C55.6897 28.4301 55.3597 28.3601 54.9897 27.9501C54.2197 27.7001 53.3497 27.8301 52.6997 28.1901C52.7097 28.1901 52.7097 28.1901 52.7197 28.1901C51.8997 28.4001 51.2197 27.7601 50.4497 27.9901C49.6897 28.6501 48.8597 27.5901 47.9297 27.9401C48.2397 25.8201 47.8097 23.5101 48.1597 21.5601C48.0597 20.2101 47.7497 19.0101 48.1797 17.6801C47.9897 15.9001 46.8897 13.5201 49.5097 13.2001C49.5197 13.1901 49.5397 13.1901 49.5497 13.1801C55.7297 11.2201 61.7697 8.67014 68.1597 7.38014C74.1397 5.43014 80.0797 3.52014 86.2297 1.96014C86.6397 7.21014 86.2697 12.4801 86.2297 17.7601V17.7501C86.0997 18.3601 86.3297 18.8801 86.5097 19.4001C86.6597 20.1301 86.2497 20.6601 86.2197 21.3301C85.0597 22.0001 83.6797 21.5501 82.4597 21.3501C81.7497 21.8401 80.4997 21.8301 79.7397 21.3801C77.8397 21.0301 78.0397 22.1701 75.6297 21.1301C75.2497 21.0401 74.7297 21.0901 74.5897 21.5201C73.4297 21.6401 72.5197 21.1101 71.4297 21.0201C69.4297 22.2401 68.5097 20.6601 66.7097 21.4201C66.7197 21.4201 66.7397 21.4201 66.7497 21.4201C66.3097 21.4401 65.8697 21.4401 65.4397 21.4301C63.6897 21.1301 61.9497 22.1101 60.0497 21.5901H60.0597C57.7397 20.8501 59.8697 25.0101 58.7697 25.8501C58.6197 27.1201 60.1797 26.3901 60.8997 26.5101C60.8897 26.5101 60.8897 26.5101 60.8897 26.5101C69.4497 26.2301 77.9597 26.6601 86.4497 26.9801C85.4497 31.4001 86.3397 35.9701 86.0997 40.4301C85.7997 40.4601 85.5097 40.4901 85.2197 40.5101ZM88.8497 25.9601C87.2697 25.8501 85.5897 25.9001 83.9897 25.6701C82.8897 26.1301 81.4997 25.8901 80.5397 25.3001C78.9397 24.9201 77.4497 25.8301 75.8797 25.0301C75.4597 24.9401 74.8097 24.8801 74.6597 25.3901C73.8997 25.3501 72.9897 25.5301 72.3297 25.1501C70.8597 24.3601 70.9097 25.4201 69.7797 25.3701H69.7897C68.4897 25.6501 67.1197 24.7101 65.9397 25.1801C65.4097 25.6701 64.4997 24.9701 63.7997 25.1001C62.6397 25.3001 61.4597 25.4101 60.2197 25.3901C60.2097 24.5001 60.1097 23.6101 60.1297 22.7201C62.3597 23.0101 64.5697 22.4901 66.7897 22.5201C66.7797 22.5201 66.7797 22.5201 66.7697 22.5201C73.1597 22.4201 79.5497 22.9001 85.9297 22.6601C87.1497 22.4501 88.4097 22.7701 89.6297 22.7001C89.4797 23.6801 90.3597 26.4101 88.8497 25.9601Z" fill="#27456A"/>
<path d="M78.7298 14.9699C78.7298 14.9499 78.7298 14.9199 78.7298 14.8999C78.0898 17.5399 80.7998 16.7099 82.3998 16.5099C83.6698 16.1999 82.6298 14.0499 82.9398 13.0399V13.0499C83.0798 11.1499 83.2198 11.2899 81.4498 11.4599C81.4598 11.4599 81.4598 11.4599 81.4698 11.4599C81.4498 11.4599 81.4298 11.4499 81.4098 11.4499H81.4198C78.0798 10.5899 78.6998 12.5099 78.7298 14.9699ZM79.8898 12.3999C80.2398 12.3799 80.5998 12.4199 80.9498 12.4699C81.2398 12.5199 81.5398 12.5599 81.8398 12.5999C81.7898 13.5399 81.8298 14.4799 81.8598 15.4299C81.1998 15.5899 80.5198 15.5899 79.8498 15.6599C79.9798 14.5899 79.6498 13.4299 79.8898 12.3999Z" fill="#27456A"/>
<path d="M73.1495 16.9901C75.5295 16.8701 76.5495 17.6101 76.2995 14.6101C76.2995 14.6201 76.2995 14.6201 76.2995 14.6301C76.2995 14.5901 76.2995 14.5501 76.2995 14.5201C76.2995 14.5301 76.2995 14.5301 76.2995 14.5401C76.2395 13.1101 77.0895 11.6901 74.9795 11.9301C72.2295 11.5501 72.4795 12.2901 72.4595 14.6901C72.4595 14.6801 72.4595 14.6801 72.4595 14.6701C72.4595 14.7701 72.4595 14.8701 72.4495 14.9701V14.9601C72.4495 15.0501 72.4495 15.1401 72.4495 15.2201C72.4495 15.2101 72.4495 15.2001 72.4495 15.1901C72.4495 15.8901 72.0895 16.9401 73.1495 16.9901ZM73.5695 15.2401C73.5795 15.0301 73.5795 14.8101 73.5895 14.6001V14.6101C73.5895 14.5701 73.5895 14.5201 73.5895 14.4801V14.4901C73.5995 13.9901 73.6295 13.4901 73.6495 12.9901C74.1795 13.0701 74.7295 12.9801 75.2495 13.0901C75.1995 13.6101 75.1795 14.1301 75.1695 14.6501V14.6401C75.1595 14.8201 75.1595 15.0101 75.1595 15.1901C75.1595 15.3901 75.1495 15.5901 75.1395 15.7901C74.5995 15.7401 74.0795 15.9201 73.5495 15.8901C73.5695 15.6501 73.5695 15.4001 73.5795 15.1601C73.5695 15.1901 73.5695 15.2101 73.5695 15.2401Z" fill="#27456A"/>
<path d="M66.03 13.9899C66.14 14.7999 65.72 17.5099 67.22 16.4999C68.02 16.1499 69.77 17.0499 69.83 15.7699C69.83 15.7799 69.83 15.7899 69.83 15.7999C69.86 14.9499 69.9 14.0899 69.98 13.2399C70.48 13.3699 70.88 12.7199 70.54 12.3299C70.3 12.0599 69.91 12.1399 69.65 11.9099C69.28 11.7599 69.01 12.1499 68.63 12.0299C66.63 11.9399 65.64 11.4399 66.03 13.9899ZM68.18 13.1099C68.41 13.1199 68.63 13.1299 68.86 13.1399C68.8 13.8499 68.75 14.5699 68.73 15.2899C68.22 15.2299 67.71 15.3099 67.21 15.3499C67.19 14.5899 67.15 13.8199 67.13 13.0599C67.48 13.0799 67.83 13.0899 68.18 13.1099Z" fill="#27456A"/>
<path d="M59.2098 16.3803C60.1798 16.3603 62.9998 17.2803 62.9798 15.8203C62.6898 13.0303 64.1698 11.5403 60.2598 11.9903C58.9598 11.6503 58.7198 12.4203 58.9198 13.5403C59.0298 14.4303 58.2298 15.8403 59.2098 16.3803ZM60.0298 13.5903C60.0298 13.4203 60.0298 13.2403 60.0198 13.0703C60.6398 13.1003 61.2698 12.9003 61.8798 13.1103C61.8298 13.8903 61.8398 14.6803 61.8598 15.4703C61.1998 15.4203 60.5298 15.4503 59.8698 15.3703C59.8998 14.7803 60.0198 14.1903 60.0298 13.5903Z" fill="#27456A"/>
<path d="M79.2703 32.2402C77.9603 32.3102 78.6003 35.2302 78.3803 36.2502C78.1303 37.1302 79.3503 37.7602 79.5203 36.7002C79.1303 35.3402 80.3903 33.1802 79.2703 32.2402Z" fill="#27456A"/>
<path d="M226.9 41.0898C227 38.7298 226.75 36.2998 226.83 33.9198C226.81 32.4498 227.33 30.5398 226.65 29.2798C226.63 29.2598 226.62 29.2598 226.6 29.2498C223.43 26.8598 219.46 24.8098 215.73 22.9298C214.84 22.4398 210.69 19.0498 210.34 20.4498C210.29 20.5998 210.26 20.7498 210.3 20.9098C209.06 21.1898 208.15 21.8198 207.02 22.3498C207.02 22.3498 207.03 22.3498 207.03 22.3398C203.4 24.0498 200.03 26.1498 196.52 28.0198C195.74 28.1398 195.26 29.2198 196.23 29.4598C196.78 31.6598 195.57 33.1298 196.54 35.1698C196.63 35.8498 196.1 36.2398 196.09 36.8598C196.25 37.4898 196.9 37.7098 196.74 38.4898C196.84 39.1998 195.92 39.7798 196.67 40.4898C196.48 43.6098 199.11 42.3098 201.1 42.2998C201.28 43.7198 203.87 41.9098 205.04 42.2998C205.56 43.8598 207.2 41.8998 208.32 42.3898C208.56 42.7798 209.08 42.7898 209.49 42.7598C210.33 42.5198 210.8 41.9198 211.82 42.1698C213.05 42.0898 214.05 43.3998 215.3 42.5198C216.41 41.5198 217.88 43.6598 219.07 42.5398C219.78 41.6798 220.81 42.4898 221.57 42.6998C222.56 41.9198 228.46 42.9798 226.9 41.0898ZM225.34 40.9598C219.94 41.3398 214.59 40.6998 209.19 41.0798C208.8 41.1998 208.37 41.0698 207.96 41.0998C204.6 41.1898 201.37 40.8598 198.03 41.3298C197.92 37.9498 197.7 34.6498 197.68 31.2398C197.68 31.1898 197.67 31.1398 197.67 31.0798C197.67 30.9598 197.66 30.8398 197.65 30.7198C197.65 30.7298 197.65 30.7398 197.65 30.7598C197.14 29.0298 197.95 28.5598 199.45 27.9498C200.79 27.3698 201.9 26.5698 203.06 25.8298C203.05 25.8298 203.04 25.8398 203.03 25.8398C204.53 25.3398 205.9 24.6298 207.12 23.6998C207.17 23.6798 207.23 23.6498 207.28 23.6198C207.32 23.5998 207.37 23.5798 207.41 23.5598C207.41 23.5598 207.4 23.5698 207.39 23.5698C208.76 22.9498 210.11 22.2398 211.54 21.8198C211.54 21.8198 211.56 21.8298 211.55 21.8298C212.3 22.3598 213.8 22.6998 214.07 23.5298C214.07 23.8798 214.33 24.1198 214.61 24.2798C215.06 24.5098 215.67 24.8298 216.14 24.4998C217.02 24.8198 217.48 25.4898 218.15 25.9798C219.89 25.9298 220.86 27.3398 222.08 28.1398C223.05 28.1998 223.7 28.7098 224.38 29.3298C224.85 29.7398 225.71 29.8698 225.63 30.5898C225.63 30.5798 225.63 30.5698 225.63 30.5698C225.89 32.1298 225.38 33.4198 225.13 34.7998C225.13 35.4898 225.8 35.7898 225.59 36.5098C225.59 36.5398 225.59 36.5598 225.59 36.5898C225.59 36.6398 225.58 36.6798 225.58 36.7298C225.13 37.9598 225.44 38.2998 225.66 39.4398V39.4298C225.69 39.9498 225.69 40.4698 225.72 40.9898C225.6 40.9598 225.47 40.9598 225.34 40.9598Z" fill="#27456A"/>
<path d="M205.43 28.9003C202.86 28.4003 202.12 31.9803 204.52 32.5603C206.49 32.8303 207.59 29.2903 205.43 28.9003ZM205.33 30.3903C205.35 31.0903 204.54 31.7503 204.34 30.7803C204.33 30.7603 204.32 30.7403 204.32 30.7103C204.33 30.7303 204.33 30.7503 204.34 30.7703C204.26 30.5703 204.25 30.4003 204.5 30.3503C204.5 30.3503 204.5 30.3503 204.49 30.3503C204.71 30.2103 205.38 29.9503 205.33 30.3903Z" fill="#27456A"/>
<path d="M212.15 29.0104C209.75 27.9604 208.3 32.3304 210.87 32.4304C212.97 33.4704 214.32 29.7904 212.15 29.0104ZM212.06 30.6904C211.98 30.9104 211.75 31.4304 211.48 31.3204C211.22 31.1104 210.71 31.0904 210.78 30.6804C210.98 30.0404 211.9 29.9904 212.06 30.6904Z" fill="#27456A"/>
<path d="M218.25 32.6402C220.39 33.8602 222.06 30.2302 219.7 29.3902C217.57 28.4302 216.07 31.8502 218.25 32.6402ZM218.43 30.9502C218.41 30.5602 219.09 30.4802 219.21 30.5702C219.41 30.6502 219.57 30.8202 219.62 31.0302C219.62 31.0202 219.62 31.0102 219.62 31.0002C219.69 31.2802 219.37 31.5102 219.15 31.6202C219.18 31.6102 219.2 31.6002 219.23 31.5902C218.87 31.6802 218.39 31.3502 218.43 30.9502Z" fill="#27456A"/>
<path d="M205.12 36.0202C203.6 34.4502 200.78 36.8702 202.55 38.4802C204.23 39.9302 206.68 37.7502 205.12 36.0202ZM204.32 37.3002C204.33 37.8402 203.5 37.7302 203.33 37.3702C203.11 36.7802 204.46 36.5402 204.32 37.3002Z" fill="#27456A"/>
<path d="M220.96 35.5396C219.01 34.2396 217.2 37.0596 218.81 38.5096C220.82 39.8696 222.87 36.9696 220.96 35.5396ZM220.42 37.1896C220.43 37.3896 220.28 37.5396 220.09 37.5696C220.1 37.5696 220.11 37.5696 220.13 37.5596C219.85 37.6196 219.54 37.1896 219.44 36.9296C219.51 36.5396 220.04 36.3396 220.31 36.6496C220.29 36.6296 220.27 36.6096 220.25 36.5896C220.37 36.6896 220.41 36.8396 220.42 36.9896C220.42 36.9596 220.42 36.9296 220.41 36.9096C220.43 36.9996 220.43 37.0996 220.42 37.1896Z" fill="#27456A"/>
<path d="M190.79 24.77C191.16 18.42 190.4 21.2 185.42 20.48C185.17 20.77 184.74 20.73 184.39 20.79C184.67 21.87 183.7 22.23 184 22.91C183.08 23.84 184.61 25.2 183.8 25.66C182.96 27.02 184.36 28.39 183.83 29.89C183.7 30.76 182.77 31.11 183.53 32.17C183.69 33.15 183.39 33.96 183.25 34.86C183.35 35.96 183.51 37.25 183.09 38.26C183.22 39.33 183.08 40.4 183.04 41.48C183.77 41.2 184.35 40.52 184.29 39.69C186.16 39.21 188.92 40.31 190.32 38.89C190.43 34.19 190.83 29.46 190.79 24.77ZM184.36 35.47C184.46 35.17 184.47 34.84 184.51 34.53C186.1 34.16 187.79 34.37 189.42 34.19C189.41 34.77 189.41 35.34 189.38 35.92C187.83 35.51 186 36.05 184.35 35.91C184.36 35.76 184.36 35.61 184.36 35.47ZM189.55 29.73C189.63 29.88 189.54 30.08 189.55 30.25C188.12 30.43 186.66 30.56 185.24 30.79C185.24 30.79 185.25 30.79 185.26 30.79C183.59 32.75 188.64 31.25 189.52 31.35C189.52 31.93 189.53 32.52 189.51 33.11C187.87 33.25 186.21 33.19 184.57 33.38C184.61 32.77 184.5 32.13 184.59 31.53C184.59 31.51 184.6 31.49 184.61 31.47C184.61 31.47 184.61 31.48 184.61 31.49C184.93 29.99 185.02 28.45 184.98 26.92C186.26 26.85 187.54 26.69 188.82 26.66C188.8 26.66 188.77 26.66 188.75 26.66C189.1 26.66 189.44 26.65 189.78 26.64C189.83 28.61 186.12 26.93 185.35 28.41C185.25 29.77 188.58 28.46 189.49 28.53C189.44 28.92 189.32 29.38 189.55 29.73ZM185.73 21.59C187.06 21.72 188.4 21.6 189.73 21.65C189.7 22.97 189.65 24.22 189.76 25.55C189.65 25.56 189.54 25.56 189.43 25.56C187.97 25.55 186.52 25.73 185.06 25.82C185.08 25.48 185.08 25.13 185.07 24.78C185.07 24.78 185.07 24.79 185.07 24.8C185.09 24.47 185 24.13 185.07 23.8C185.25 23.07 185.36 22.31 185.41 21.56C185.51 21.57 185.62 21.59 185.73 21.59ZM188.08 38.46C187.07 38.47 186.08 38.45 185.06 38.52H185.07C184.82 38.52 184.57 38.55 184.32 38.58C184.25 38.36 184.2 38.17 184.27 37.93C184.27 37.95 184.27 37.97 184.27 37.99C184.31 37.66 184.33 37.32 184.34 36.99C184.7 36.98 185.08 36.97 185.44 36.97C186.71 36.88 188.08 37.02 189.31 36.73C189.43 37.89 189.48 38.68 188.08 38.46Z" fill="#27456A"/>
<path d="M181.74 19.8596C181.29 19.7196 180.79 19.8396 180.33 19.8096C180.39 19.3496 180.44 18.8896 180.49 18.4296C181.13 13.4596 179.37 15.1696 175.87 15.1896C175.89 15.1896 175.91 15.1996 175.94 15.1996C175.37 15.1296 174.8 14.9996 174.23 14.9396C174.22 14.9396 174.22 14.9396 174.21 14.9396H174.22C172.96 15.2196 173.53 17.4596 173.55 18.4596C173.55 18.4496 173.55 18.4296 173.55 18.4196C173.61 18.8796 173.72 19.3396 173.87 19.7796C172.7 19.7896 171.53 19.7796 170.36 19.7896C170.49 17.0196 171.84 14.5596 167.8 15.1996C167.81 15.1996 167.82 15.1996 167.82 15.1996C162.59 14.7996 164.17 15.4196 164.5 19.8496C163.51 19.8896 162.53 19.9296 161.54 19.9596C162 13.7696 162.03 15.1196 156.24 15.3096C154.33 14.2096 155.75 19.2996 155.8 20.2296C153.74 20.2296 152.87 20.0396 153.83 22.3696C154.28 24.1996 153.53 25.6796 156.05 25.2796C156.05 25.2796 156.05 25.2796 156.04 25.2796C156.18 25.2796 156.32 25.2796 156.46 25.2696C157.14 25.2596 157.82 25.2396 158.49 25.2296C158.49 25.2296 158.49 25.2296 158.48 25.2296C162.17 25.1096 165.83 24.9796 169.47 24.8596C169.45 24.8596 169.42 24.8596 169.4 24.8596C169.95 24.9096 170.7 24.7096 171.15 24.8896C171.27 25.1596 171.62 25.2596 171.88 25.1296C174.33 24.1496 177.69 24.8296 180.46 24.3696C180.46 24.3696 180.45 24.3696 180.44 24.3696C180.91 24.3896 181.57 24.1896 181.33 23.5996C181.82 23.1596 181.55 22.3096 181.79 21.7196C181.79 21.7296 181.79 21.7396 181.78 21.7396C181.79 21.7196 181.79 21.6896 181.8 21.6696C181.8 21.6696 181.8 21.6696 181.8 21.6796C181.85 21.1096 182.4 20.2396 181.74 19.8596ZM178.95 15.9196C180.02 15.6896 179.36 17.5996 179.46 18.2896C179.46 18.2896 179.46 18.2996 179.46 18.3096V18.2996C179.4 18.7996 179.34 19.2896 179.28 19.7896C178.76 19.7796 178.25 19.7896 177.73 19.7896C177.67 18.5396 177.84 17.2496 177.96 16.1096C178.29 16.0496 178.62 15.9696 178.95 15.9196ZM174.98 19.7696C174.8 19.2896 174.66 18.7996 174.59 18.2896C174.59 18.2896 174.59 18.2896 174.59 18.2996C174.59 18.2796 174.58 18.2596 174.58 18.2396C174.58 18.2396 174.58 18.2496 174.58 18.2596C174.57 18.2096 174.57 18.1596 174.56 18.1096C174.56 18.1196 174.56 18.1296 174.57 18.1396C174.49 17.5996 174.46 17.0496 174.52 16.4996C174.54 16.3496 174.55 16.2096 174.57 16.0596C175.33 16.1996 176.11 16.3296 176.89 16.2596C176.54 17.3996 176.78 18.6396 176.65 19.8096C176.1 19.7796 175.53 19.8096 174.98 19.7696ZM168.04 16.2496C168.55 16.2496 169.07 16.2396 169.58 16.2396C169.66 17.4196 169.27 18.6696 169.46 19.8096C169.35 19.8096 169.25 19.8196 169.14 19.8196C168.87 19.8196 168.61 19.8296 168.34 19.8296C167.69 19.9796 167.92 19.4596 167.84 18.9896C167.84 18.9896 167.84 18.9896 167.84 18.9996C168.05 18.2396 167.19 16.3696 168.04 16.2496ZM165.67 16.2196C165.66 16.2196 165.65 16.2196 165.63 16.2196C165.95 16.2196 166.27 16.2296 166.59 16.2396C166.69 17.4396 166.79 18.6596 166.76 19.8496C166.36 19.8796 165.96 19.8096 165.56 19.8296C165.36 18.6596 165.28 17.4296 165.17 16.2296C165.33 16.2196 165.5 16.2196 165.67 16.2196ZM159.51 16.1896C159.89 16.2096 160.27 16.4096 160.64 16.2896C160.6 17.4896 160.5 18.6896 160.46 19.8896C160.03 19.9296 159.57 19.8796 159.2 20.0896C158.98 18.7996 159.17 17.4596 158.97 16.1596C159.16 16.1596 159.34 16.1696 159.51 16.1896ZM156.87 20.1896C156.86 20.0996 156.84 20.0196 156.81 19.9296C156.81 19.9396 156.81 19.9396 156.81 19.9496C156.81 19.9296 156.8 19.9096 156.8 19.8896C156.72 19.5796 156.66 19.2396 156.61 18.9196C156.61 18.9296 156.61 18.9296 156.61 18.9296C156.61 18.9196 156.6 18.8996 156.6 18.8896V18.8996C156.49 18.0596 156.46 17.2096 156.41 16.3696C156.91 16.3196 157.4 16.2996 157.9 16.2396C158.1 17.5296 157.96 18.8396 158.11 20.1396C157.7 20.1596 157.29 20.1696 156.87 20.1896ZM162.54 23.9896C160.42 23.7896 158.19 24.3696 155.98 24.2096C155.99 24.2096 156 24.2096 156.01 24.2096C155.74 24.2096 155.47 24.2196 155.2 24.2096C154.97 23.2596 154.95 22.2696 154.65 21.3496C157.4 21.3196 160.14 21.0796 162.88 21.0096C162.88 21.3996 162.89 21.7896 162.89 22.1796C162.89 22.1596 162.89 22.1296 162.89 22.1096C162.89 22.1896 162.89 22.2796 162.89 22.3596C162.89 22.3496 162.89 22.3396 162.89 22.3296C162.9 22.5896 162.9 22.8396 162.9 23.0996C162.91 23.3996 162.9 23.6996 162.93 23.9896C162.8 23.9796 162.67 23.9896 162.54 23.9896ZM168.37 23.8196C167.91 23.7896 167.44 23.7996 166.97 23.8096H166.98C165.99 23.8296 165 23.8996 164.02 23.9296C164 23.7096 163.99 23.4796 163.99 23.2496C163.99 23.2696 163.99 23.2996 163.99 23.3196C163.99 23.2296 163.99 23.1496 163.99 23.0596C163.99 23.0696 163.99 23.0696 163.99 23.0796C163.99 23.0096 163.99 22.9396 163.99 22.8596C163.99 22.8696 163.99 22.8796 163.99 22.8896C163.99 22.7096 163.98 22.5196 163.98 22.3396C163.98 22.3496 163.98 22.3496 163.98 22.3496C163.98 22.2796 163.98 22.2196 163.98 22.1496C163.98 22.1596 163.98 22.1696 163.98 22.1696C163.97 21.7596 163.96 21.3496 163.97 20.9396C164.79 21.2496 165.71 21.0196 166.56 20.9096C167.13 20.8996 167.7 20.9096 168.27 20.8896C168.26 20.8896 168.25 20.8896 168.23 20.8896C168.34 20.8796 168.44 20.8896 168.55 20.8896C168.55 20.8896 168.55 20.8896 168.54 20.8896C168.59 20.8896 168.64 20.8896 168.68 20.8896C168.67 20.8896 168.65 20.8896 168.64 20.8896C169.57 20.7796 170.39 21.1796 171.33 21.0096C171.32 21.9196 171.21 22.8196 171.13 23.7296C170.2 23.7796 169.28 23.7796 168.37 23.8196ZM180.42 23.2996C180.27 23.3196 180.13 23.3496 179.98 23.3796C179.99 23.3796 179.99 23.3796 180 23.3796C179.98 23.3796 179.96 23.3896 179.94 23.3896C179.94 23.3896 179.94 23.3896 179.95 23.3896C177.34 23.3396 174.82 23.6896 172.2 23.6596C172.29 22.7296 172.38 21.8096 172.4 20.8796C174.8 21.0696 177.66 20.4396 179.68 21.2896C180.18 21.1696 180.3 20.7196 180.92 20.8796C180.72 21.5796 180.6 22.2896 180.56 23.0096C180.54 23.0996 180.54 23.1996 180.56 23.2896C180.51 23.2896 180.46 23.2896 180.42 23.2996Z" fill="#27456A"/>
<path d="M181.7 34.0398C181.25 33.8498 180.72 34.0098 180.24 33.9498C180.28 33.7398 180.19 33.5598 180.25 33.3498C181.29 26.7898 180 28.9098 174.85 28.4198C173.87 29.1498 174.75 32.7798 174.82 34.0798C173.81 34.1298 172.82 34.2398 171.81 34.1698C171.7 31.7598 173.63 27.1798 169.48 28.2598C163.86 28.9798 164.67 28.6498 165.95 34.1298C165.05 34.1598 164.16 34.2198 163.26 34.2498C162.95 32.8998 163.96 29.4698 162.04 29.3798C159.96 29.6298 155.4 28.5098 156.52 31.9898C156.54 32.1098 156.56 32.2398 156.58 32.3598C156.59 32.3998 156.59 32.4398 156.6 32.4798C156.6 32.4998 156.61 32.5198 156.61 32.5398C156.74 33.2098 156.69 33.9498 157.04 34.5498C152.48 34.1898 154.76 34.8898 154.77 38.2398C154.86 39.4398 155.89 38.5798 156.6 38.6898C156.59 38.6898 156.58 38.6898 156.56 38.6898C162.84 39.2098 169.17 38.6198 175.5 38.7298C175.49 38.7298 175.48 38.7298 175.47 38.7298C176.36 38.7298 177.26 38.7498 178.15 38.8398C179.01 38.6398 180.89 39.2998 181.14 38.1898C180.72 37.2498 181.38 35.9998 181.62 34.9698C182.02 34.8198 182.06 34.2498 181.7 34.0398ZM179.3 29.5898C179.37 29.5998 179.44 29.5998 179.51 29.5998C179.48 31.0398 179.3 32.4998 179.14 33.9198C178.76 33.9098 178.37 33.8998 177.99 33.8998C178.46 32.5098 177.01 28.9498 179.3 29.5898ZM176.47 29.6198C176.64 29.6198 176.82 29.5998 176.99 29.5898C176.99 29.8398 177 30.0898 177.01 30.3398C177.01 30.3398 177.01 30.3298 177.01 30.3198C177.02 31.5098 177.02 32.7098 176.93 33.8998C174.87 34.3598 175.9 30.8498 175.54 29.5498C175.84 29.5998 176.16 29.6298 176.47 29.6198ZM170.42 29.2598C170.44 29.2598 170.46 29.2598 170.47 29.2598C170.46 29.2598 170.45 29.2598 170.45 29.2598C170.65 29.2598 170.85 29.2598 171.05 29.2598C171.1 30.8898 170.89 32.5198 170.77 34.1498C170.39 34.1498 170 34.1698 169.62 34.1798C169.71 33.3198 169.52 32.5198 169.5 31.6798C169.5 31.6598 169.5 31.6398 169.5 31.6198C169.48 30.8298 169.42 30.0598 169.58 29.3198C169.86 29.2898 170.14 29.2698 170.42 29.2598ZM167.41 29.6598C167.74 29.5998 168.07 29.5498 168.4 29.4998C168.38 30.2398 168.44 30.9698 168.44 31.7098C168.44 31.6898 168.44 31.6698 168.44 31.6398C168.41 32.5198 168.57 33.3698 168.55 34.2398C166.16 34.8598 166.6 31.5098 166.2 29.8698C166.61 29.7998 167.01 29.7298 167.41 29.6598ZM161.5 30.4398C161.51 30.4398 161.53 30.4398 161.54 30.4398C161.54 30.4398 161.53 30.4398 161.52 30.4398C161.7 30.4398 161.88 30.4398 162.06 30.4498C162.18 31.7198 162.22 33.0098 162.23 34.2898C161.95 34.2998 161.68 34.3098 161.4 34.3098C161.42 34.3098 161.43 34.3098 161.45 34.3098C160.13 34.4798 160.76 32.1398 160.36 31.2098V31.2198C160.05 30.3098 160.87 30.4798 161.5 30.4398ZM157.5 30.7098C158.09 30.6298 158.67 30.4798 159.27 30.4798C159.22 30.7798 159.28 31.0998 159.31 31.3998C159.45 32.4098 159.61 33.4198 159.72 34.4398C159.2 34.4798 158.68 34.5198 158.17 34.5298C158.13 33.8298 157.62 33.2098 157.68 32.3898C157.66 32.2198 157.63 32.0498 157.61 31.8798V31.8898C157.6 31.8398 157.59 31.7898 157.59 31.7398C157.59 31.7398 157.59 31.7198 157.58 31.7098C157.53 31.3898 157.48 31.0498 157.5 30.7098ZM163.88 37.7098C161.12 37.9698 158.53 37.5098 155.77 37.6498C155.67 36.9698 155.58 36.2898 155.6 35.5998C158.38 35.7498 161.14 35.3298 163.91 35.2998C163.85 36.1098 163.97 36.9198 164.07 37.7298C164.01 37.7198 163.95 37.7098 163.88 37.7098ZM170.43 37.6298C168.72 37.6998 166.67 37.8798 165.15 37.6698C165.16 37.6898 165.16 37.7098 165.17 37.7398C165.15 37.6398 165.13 37.5398 165.11 37.4298C165.11 37.4398 165.11 37.4398 165.11 37.4498C165.11 37.4298 165.11 37.4198 165.1 37.3998C165.08 36.7298 164.76 35.9098 165.09 35.3198C166.87 35.6798 168.89 35.1498 170.75 35.2398C170.73 35.2398 170.72 35.2398 170.7 35.2398C171.38 35.2498 171.95 35.6398 172.69 35.4398C172.7 36.1698 172.69 36.8998 172.66 37.6298C171.93 37.5798 171.18 37.5998 170.43 37.6298ZM177.79 37.6998C176.45 37.6998 175.1 37.6398 173.75 37.7298C173.85 36.9098 173.56 35.9398 173.91 35.2098C176.12 35.0898 178.28 34.8998 180.49 35.0298C180.14 36.8798 180.05 38.2998 177.79 37.6998Z" fill="#27456A"/>
<path d="M125.36 24.7403C125.3 25.9003 131.22 25.6903 131.96 25.2503C131.89 23.1203 132.53 20.5403 131.48 18.5503C130.98 16.8003 128.09 17.2603 127.03 18.1603C124.97 19.0903 125.49 22.2203 125.49 24.1103C125.49 24.1103 125.49 24.1003 125.49 24.0903C125.59 24.3503 125.42 24.4903 125.36 24.7403ZM126.71 24.3303C126.42 23.8103 126.58 23.1703 126.52 22.5803C127.09 22.5803 127.65 22.6603 128.21 22.7103C128.25 23.2903 128.21 23.8703 128.22 24.4603C127.71 24.4103 127.21 24.3803 126.71 24.3303ZM129.5 24.4703C129.43 24.4703 129.36 24.4703 129.29 24.4803C129.29 23.9003 129.32 23.3203 129.28 22.7403C129.83 22.6903 130.41 22.8503 130.94 22.7303C130.97 23.2903 130.96 23.8503 130.94 24.4103C130.46 24.4403 129.99 24.4703 129.5 24.4703ZM129.74 18.6903C129.87 18.6703 129.99 18.5903 130.08 18.4903C130.42 18.6003 130.28 18.8703 130.42 19.1303C130.61 19.3403 130.84 19.4503 130.88 19.7703C130.59 20.4203 131.32 21.0903 130.81 21.7103C130.29 21.6503 129.76 21.6603 129.24 21.6603C129.39 20.8403 128.62 18.6203 129.74 18.6903ZM126.67 21.0003C126.93 20.4503 126.65 19.8203 127.1 19.3303C127.76 19.6503 127.76 18.8003 128.17 18.6603C128.05 19.6403 128.11 20.6403 128.16 21.6203C127.64 21.5703 127.12 21.5003 126.59 21.5003C126.61 21.3403 126.63 21.1703 126.67 21.0003Z" fill="#27456A"/>
<path d="M127.42 34.4299C126.37 34.2499 126.26 37.1599 127.17 37.2199C127.86 37.1899 127.68 36.4099 127.71 35.9399C127.62 35.4099 128.21 34.6199 127.42 34.4299Z" fill="#27456A"/>
<path d="M103.13 31.5004C102.98 31.4604 102.83 31.4704 102.69 31.5104C102.69 30.8404 102.72 30.1704 102.77 29.5004V29.5104C102.77 29.5004 102.77 29.4804 102.77 29.4704C102.77 29.4704 102.77 29.4704 102.77 29.4804C102.82 28.9604 102.88 28.4304 102.92 27.9104C102.92 27.8804 102.92 27.8604 102.93 27.8304C102.93 27.8304 102.93 27.8304 102.93 27.8404C102.93 27.8104 102.93 27.7904 102.94 27.7604C102.94 27.7004 102.95 27.6404 102.95 27.5704C103.17 25.6104 101.08 25.8404 101.77 27.7504V27.7404C101.77 27.7704 101.77 27.7904 101.76 27.8204C101.76 27.8004 101.76 27.7904 101.76 27.7704C101.49 29.5504 101.57 31.4004 101.54 33.1404C99.59 32.4704 98.84 30.0904 99.01 28.1804C96.61 25.2104 98.09 34.5004 101.33 34.1704C101.32 35.2904 100.63 37.2404 101.98 37.7804C102.19 38.9204 101.63 39.7304 101.33 40.7904C101.12 41.6404 102.45 41.7804 102.49 40.9204C102.92 41.0404 103.31 40.6104 103.2 40.1904C103.2 40.2204 103.2 40.2404 103.2 40.2704C103.2 40.1904 103.19 40.1104 103.19 40.0304C103.19 40.0604 103.19 40.0804 103.19 40.1104C102.76 39.1404 104.03 35.1304 102.34 35.8004C102.35 35.6504 102.36 35.5104 102.36 35.3604C101.92 33.6404 104.84 32.5604 103.13 31.5004Z" fill="#27456A"/>
<path d="M92.1897 33.8701C92.1497 33.8701 92.1197 33.8701 92.0797 33.8801C92.0097 32.7901 93.1097 28.9201 90.9097 30.8901C90.7197 31.1101 90.7597 31.4601 90.9597 31.6601C91.1997 32.4901 90.8197 33.6601 90.9097 34.6101C91.1097 35.6101 90.9997 36.5801 91.0697 37.6001C91.2797 37.9901 91.4397 38.2501 91.3097 38.7201C91.2997 38.8201 91.2897 38.9201 91.2897 39.0201C91.2897 39.0101 91.2897 39.0001 91.2897 38.9901C91.0397 39.5101 89.9997 40.8001 91.3797 40.7701C91.3597 41.5801 92.6497 41.5101 92.5397 40.7101C92.5297 40.2701 92.3297 39.8601 92.3897 39.4201C92.3897 39.4301 92.3897 39.4301 92.3897 39.4401C92.2697 38.5801 93.1097 37.1901 92.1797 36.7101C91.9797 35.7601 93.7597 34.2801 92.1897 33.8701Z" fill="#27456A"/>
<path d="M32.2598 32.5404C32.8398 32.0004 32.2698 31.5804 32.0898 31.0904C31.8798 30.0804 32.6098 28.9604 31.5998 28.2504C31.3598 27.0104 29.5098 26.7104 28.7198 25.7604C28.3798 24.3704 26.4698 24.7104 25.6498 23.5604C26.0298 21.8004 23.3998 22.0804 22.6498 20.9004C21.3798 18.3704 19.5198 20.6104 19.7398 15.3204C19.6998 15.3204 19.6698 15.3204 19.6298 15.3204C19.6698 14.6804 19.6599 13.6404 18.7899 13.6604C18.7899 13.6604 18.7998 13.6604 18.8098 13.6604C17.6698 13.7404 18.5198 14.6704 18.3798 15.3204C18.0398 15.5104 18.3898 16.2304 18.3398 16.6004C18.3998 16.6004 18.4598 16.6004 18.5198 16.6104C18.5298 17.3804 18.8098 18.1404 18.6398 18.9004C16.9098 19.4904 15.0898 22.1004 13.4398 21.6804C13.4398 21.6804 13.4398 21.6804 13.4398 21.6904C11.8598 20.6204 10.6198 18.5104 8.75985 18.1104C7.77985 18.1004 7.24985 19.4004 6.39985 19.8404C5.32985 19.8504 4.42985 21.4004 3.49985 21.9904C3.25985 22.2404 3.23985 22.6504 3.48985 22.9004C3.84985 24.6004 3.34985 26.6204 3.85985 28.3304C3.09985 28.9204 2.31985 29.3204 1.41985 29.6804C1.05985 29.9704 0.849849 30.2704 0.399849 30.3804C-0.260151 32.5304 0.249849 35.1504 0.0198491 37.4604C0.409849 38.6004 -0.850151 41.9904 1.26985 41.4404C9.27985 41.6504 17.4598 42.4704 25.4198 42.1704C25.4198 42.1704 25.4098 42.1704 25.3998 42.1704C27.1698 42.2804 28.9298 42.2004 30.6898 42.2304C30.9998 42.4704 31.4398 42.3704 31.6498 42.0404C32.6698 40.9304 31.6198 39.9204 32.3098 38.7604C32.4498 38.0804 31.7198 37.6604 32.1398 36.9304C32.7398 36.5804 32.5298 35.8404 32.0198 35.5904C31.8398 34.8704 32.1998 34.2804 32.4098 33.6404C32.3698 33.2304 32.0798 32.9804 32.2598 32.5404ZM5.97985 21.5604C8.94985 20.0904 8.27985 18.2104 11.1798 21.5004C9.37985 21.4904 7.58985 21.6504 5.79985 21.7504C5.85985 21.6904 5.91985 21.6204 5.97985 21.5604ZM26.1698 39.4104C26.6298 39.9404 25.8699 40.3604 25.9499 40.9004C24.4599 40.8904 22.9898 40.8804 21.5198 40.9804C21.3998 39.8604 21.4299 38.8204 21.7899 37.7804C21.6499 37.3804 21.4798 37.0404 21.5998 36.5804C23.2598 36.3104 21.2998 34.4904 23.2298 35.1104C23.7098 34.9004 23.8998 34.4404 24.4998 34.8104C24.2698 35.4204 24.9698 36.0004 25.5198 35.6604C26.6398 36.8104 25.8098 38.1204 26.1698 39.4104ZM31.0098 32.3604C30.6598 35.2504 30.8399 38.0504 30.7899 40.9504C29.6799 40.9104 28.5698 40.9704 27.4698 40.9104C27.5298 39.6004 27.7298 38.2504 27.4598 36.9604C27.4598 36.9604 27.4598 36.9704 27.4698 36.9704C27.0198 34.3704 24.1498 32.3804 21.7398 33.9304C19.8998 35.5204 20.3199 38.2204 20.2799 40.4304C20.2799 40.4304 20.2799 40.4204 20.2799 40.4104C20.2899 40.5904 20.2899 40.7704 20.2799 40.9504C13.9598 40.5304 7.57985 40.4904 1.26985 40.1404C1.23985 39.4904 2.09985 38.9304 1.63985 38.2104C0.699849 37.4804 1.90985 36.3304 1.46985 35.4104C0.749849 33.9604 2.76985 34.6504 1.42985 32.3604C1.42985 32.2504 1.41985 32.1204 1.41985 32.0004C1.41985 32.0004 1.41985 32.0004 1.41985 32.0104C1.39985 31.4704 1.86985 30.8104 2.41985 30.6204C2.41985 30.6204 2.41985 30.6204 2.40985 30.6204H2.41985C2.42985 30.6204 2.44985 30.6104 2.45985 30.6104C4.64985 29.7404 6.11985 27.6804 8.32985 27.0004C8.64985 26.4004 9.42985 25.7904 10.1198 25.7804C10.8798 25.8104 10.9298 24.9204 11.5898 24.7004C11.7598 24.6304 11.9498 24.4104 12.1198 24.4504C12.7298 24.7604 13.7398 24.1604 13.7798 23.4904C14.3098 23.5104 14.3898 22.8704 14.8798 22.7704C15.4298 22.5804 16.4998 22.8404 16.3398 21.8404C16.8498 21.2604 17.5798 21.4904 18.1798 21.0904C18.5598 20.6804 18.5598 20.1704 19.2098 20.0204C20.2898 19.8604 22.9798 22.9004 24.0898 23.7204C25.6198 25.3504 27.6698 26.3304 29.3598 27.7904C31.1998 28.7204 30.6998 30.6704 31.0098 32.3604Z" fill="#27456A"/>
<path d="M145.09 20.5397C145.11 20.5497 145.13 20.5697 145.15 20.5797C140.04 17.1597 134.73 14.0697 129.81 10.3397C129.82 10.3497 129.83 10.3497 129.83 10.3597C129.28 10.0297 128.86 9.54966 128.34 9.22966H128.35C127.45 9.15966 126.75 10.0097 125.96 10.3697C125.32 10.1697 124.24 10.9497 124.61 11.6497C123.68 12.3797 123.18 11.2497 122.62 12.9497C122.25 13.3697 121.85 13.1097 121.42 13.2897C120.91 13.5297 120.84 14.0897 120.38 14.3397C119.24 15.0197 118.99 14.5697 118.3 15.9297C117.72 15.6397 116.81 16.2397 116.69 16.8297C115.35 17.7497 114.1 18.7197 112.69 19.5097C111.58 20.0897 111.38 20.3897 112.23 21.4197C112.64 22.7597 113.52 23.4497 114.81 22.5397C114.81 22.7397 114.81 22.9497 114.81 23.1597C114.81 23.1597 114.81 23.1497 114.81 23.1397C114.69 23.8297 115.04 24.8597 114.48 25.3097C114.25 25.5297 114.2 25.8697 114.26 26.1797C114.26 26.7597 115.02 26.7497 114.96 27.2597C115.31 28.3097 113.43 29.8297 115.01 30.4397C115.38 31.7897 114.09 32.6897 114.83 33.9297C114.95 34.7697 114.52 35.4297 114.49 36.1997C114.08 36.2297 113.54 36.1297 113.28 36.5197C111.98 35.7797 112.54 40.9197 112.58 41.6197C112.77 42.5597 112.31 43.9697 113.7 43.9397C113.7 43.9397 113.69 43.9397 113.69 43.9297C114.93 44.0797 116.14 43.6697 117.4 43.9397C118.81 43.9197 120.22 43.5797 121.64 43.8197C124.11 43.7597 123.59 43.6697 123.5 41.4297C126.41 41.4497 129.34 41.4497 132.25 41.7297C132.52 43.0597 134.93 43.9297 136.02 43.0597C137.77 44.5297 138.73 42.6297 139.96 42.9797C142.69 43.8697 144.98 40.1197 141.41 39.4997C142.11 33.8197 141.66 28.1197 142.22 22.4297C142.83 22.6297 143.64 23.6297 144.21 22.9697C144.77 22.2597 146.11 21.4797 145.09 20.5397ZM115.78 25.6097C115.7 21.7197 115.98 21.5997 119.41 19.8897C122.31 17.8797 125.32 16.1797 128.14 14.0397C128.22 14.1097 128.32 14.1597 128.42 14.2097C128.41 14.2097 128.41 14.1997 128.4 14.1997C129.56 14.7797 130.62 15.4397 131.53 16.2697C132.71 16.7397 133.87 17.3397 134.61 18.3197C135.76 18.6697 136.74 19.1597 137.58 19.9797C138.85 20.3797 139.95 21.1197 141.06 21.8897C141.04 23.0097 141.13 24.1697 140.85 25.3197C140.35 25.7597 140.22 26.7697 140.49 27.3497C137.69 27.2197 134.96 27.3597 132.25 27.0697C131.21 27.3497 130.37 27.2097 129.43 27.0097C128.33 27.0397 127.15 27.2897 126.11 26.9897C125.26 27.0697 124.46 27.3797 123.57 27.2997C123.46 26.9297 123.03 26.8797 122.7 26.9297C121.69 27.1797 120.69 27.3197 119.66 27.0897C118.49 27.4397 117.3 27.2097 116.03 27.2197C116.04 26.6797 115.83 26.1397 115.78 25.6097ZM122.38 42.6097C122.12 42.5197 121.9 42.6997 121.7 42.7697C121.21 42.7697 120.62 42.2797 120.22 42.7197C120.04 42.7297 119.88 42.7297 119.73 42.6197C119.23 42.3497 118.96 43.0097 118.49 42.7197C118.22 42.5597 117.83 42.6097 117.67 42.9097C117.16 42.8797 116.67 42.8397 116.17 42.7497C115.35 42.6897 114.57 43.0297 113.76 42.8897C112.88 34.5797 114.06 38.0197 122.22 37.0197C122.27 37.9397 122.28 38.8697 122.3 39.7897C122.3 39.7697 122.3 39.7497 122.3 39.7197C122.31 40.5597 122.33 41.3097 122.38 42.1297H122.37C122.44 42.3197 122.47 42.4197 122.38 42.6097ZM130.18 32.8797C130.43 33.8897 129.59 34.8297 130.08 35.6497C130.1 36.2797 130.12 36.9497 129.92 37.5497C130.06 38.5097 129.97 39.3897 129.8 40.3797C127.63 40.5197 125.58 40.3097 123.44 40.3697C123.42 38.7997 123.17 37.1597 123.38 35.6397C123.19 34.8797 122.14 35.2497 122.17 35.9397C120.03 35.9997 117.9 36.1297 115.76 36.1797C116.64 25.0797 113.74 29.0897 124.89 28.3197C124.7 29.0897 122.99 32.8797 124.85 32.1597C124.88 32.3097 124.92 32.4597 124.94 32.6097C125.13 32.1597 125.76 32.0097 126.14 32.2897C126.14 32.2197 126.12 32.1397 126.08 32.0797C126.73 32.0097 127.39 32.0497 128.04 32.0497C128.03 32.0497 128.03 32.0497 128.02 32.0497C128.78 32.0097 129.55 32.1597 130.31 32.0797C130.19 32.3097 130.19 32.6097 130.18 32.8797ZM129.79 31.0297C128.27 30.9397 126.74 30.9397 125.22 31.0597C125.46 30.3697 125.49 29.6197 125.76 28.9497C126.01 28.8197 126.14 28.5297 126.03 28.2597C127.57 27.9997 128.96 28.3397 130.45 28.3497C131.75 28.0997 131.86 30.1397 132.27 31.0597C131.46 30.9597 130.62 30.9497 129.79 31.0297ZM132.65 39.5997C132.49 39.8797 132.41 40.1997 132.35 40.5097C131.84 40.4997 131.41 40.7097 130.87 40.5497C131.26 37.7697 131.12 34.7897 131.31 32.0697C132.34 32.2297 134.3 32.2997 133.28 30.7197C132.97 29.9297 132.89 28.9997 132.34 28.3197C135.21 28.3097 138.03 28.4497 140.93 28.4097C141.08 29.1397 140.41 29.3197 140.38 29.9697C140.47 31.0497 140.99 31.9097 140.64 33.0797C140.18 33.7797 140.57 34.4597 140.75 35.0697C140.71 35.6797 140.85 36.3197 140.4 36.7697C140.27 37.6697 140.56 38.5997 140.36 39.5097C138.55 40.4497 137.37 37.7397 135.62 39.3197C134.86 38.4597 133.22 38.5797 132.65 39.5997ZM141.4 40.5897C142.67 40.9197 142.21 41.7497 141.18 41.9897C140.31 42.3897 139.54 41.3597 138.74 41.6597C138.32 42.6897 137.3 42.8497 136.44 42.1097C136.07 41.4397 135.27 41.6097 135.24 42.3597C133.79 42.6297 132.79 41.3297 133.62 40.0597C134.4 39.3697 134.97 40.1697 135.27 40.8397C135.94 41.3097 136.09 40.4697 136.37 40.0797C137.18 39.4297 137.87 40.4497 138.35 40.9697C139.02 41.1197 139.74 40.5497 140.42 40.5997C140.76 40.9297 141.07 40.4797 141.4 40.5897Z" fill="#27456A"/>
<path d="M316.66 42.6805C315.74 42.6805 314.84 42.5405 313.92 42.4905C312.34 42.8705 313.67 34.8805 313.55 33.5605V33.5705C313.57 33.0805 313.85 32.5005 314.43 32.6205C314.42 32.6205 314.42 32.6205 314.41 32.6205C315.61 32.7105 316.9 32.8205 318.12 32.8905C318.69 32.5405 319.25 33.0905 319.2 33.6905C319.25 36.3705 318.8 39.0405 318.83 41.7205C318.88 42.8605 317.42 42.6505 316.66 42.6805Z" fill="#F5E07D"/>
<path d="M346.531 43.1708C343.991 43.2908 342.031 39.8208 344.071 38.0408C347.491 35.9508 351.501 37.4008 355.151 37.3408C356.291 37.0708 355.491 34.3908 356.541 33.4308C356.961 32.8008 357.771 32.4408 358.511 32.6208C359.071 32.1208 359.721 31.6808 360.441 31.4408C361.771 31.2108 363.091 32.1208 364.241 32.6908C365.421 33.8708 366.531 35.3708 366.661 37.0808C369.051 37.1308 371.421 37.2808 373.781 37.6408C375.261 37.9008 376.991 37.3408 378.301 38.1908C381.231 40.6908 376.591 42.6108 374.391 41.8608C370.341 41.7408 366.221 41.8608 362.211 41.8408C357.001 42.2908 351.751 43.0608 346.531 43.1708Z" fill="#F5E07D"/>
<path d="M317.39 23.8803C316.93 23.8403 316.38 23.4103 315.96 23.7103C315.75 23.8403 315.5 23.8003 315.31 23.6703C314.74 23.5903 314.19 23.8803 313.64 23.8603C312.76 23.3203 311.7 23.5003 310.75 23.5403C309.95 24.2703 309.22 22.6103 307.05 23.4203C303.48 23.2603 307.42 20.9803 308.54 20.4203C308.76 20.1403 308.95 20.0303 308.95 19.6503C309.29 19.0403 310.1 18.9103 310.62 18.4703C310.87 17.5803 312.05 17.6603 312.59 16.9403C312.79 16.3603 313.49 16.3503 313.92 15.9803C314.24 15.8203 314.22 15.4203 314.54 15.2303C315.85 15.2203 315.31 14.0903 316.34 14.0103C316.88 13.9903 316.73 13.2003 317.25 13.0403C317.46 12.9703 317.59 12.9803 317.66 12.7403C318.62 11.8803 319.6 13.7103 320.49 14.0503C321.64 14.6103 322.65 15.5303 323.77 16.1703C324.13 17.0603 325.21 17.3203 325.8 18.0403C325.8 18.0303 325.79 18.0303 325.79 18.0203C327.25 19.1303 328.55 20.3703 330.02 21.4403C330.2 21.9103 330.65 22.1603 330.72 22.7003C330.66 23.1303 330.4 23.7303 329.88 23.7003C328.58 23.7603 327.24 23.7603 325.98 23.8303C324.91 23.5803 323.8 23.6003 322.74 23.7503C322.21 23.4503 321.65 23.6703 321.1 23.7003C320.72 23.5003 320.27 23.6503 319.87 23.7403C319.59 23.8503 319.22 23.8203 319.04 23.5503C318.42 23.4003 317.93 23.7703 317.39 23.8803Z" fill="#F39F82"/>
<path d="M330.57 31.3399C329.51 29.7999 330.12 27.4799 330.24 25.6299C330.26 25.0999 330.88 24.7099 331.3 25.1099C332.46 25.7799 334.37 25.0799 335.67 25.7399C336.69 26.2799 337.14 27.6599 337.89 28.5199C338.41 29.2499 340.33 30.9099 338.41 31.1099C338.44 31.1099 338.46 31.1199 338.49 31.1199C337.61 30.8499 336.74 31.3499 335.93 31.1399C335.35 30.9499 334.94 31.3299 334.4 31.3499C333.68 31.0499 332.86 31.6599 332.23 31.2799C331.69 31.3199 331.06 31.7099 330.57 31.3399Z" fill="#F39F82"/>
<path d="M383.8 27.27C383.08 26.94 382.44 25.5 383.14 24.87C384.47 23.82 385.81 22.81 387.15 21.78C387.43 20.33 390 20.51 390.61 18.87C391.59 18.43 392.53 18.27 392.98 17.23C393.65 16.73 394.44 16.85 395.03 16.09C395.46 15.6 396.2 15.77 396.56 16.25C397.96 16.77 399.14 17.88 400.39 18.69C402.74 20.67 405.43 22.13 407.87 23.99C408.52 24.76 409.1 25.04 407.84 25.78C407.51 26.17 407.51 26.97 406.75 26.69C404.24 25.03 401.83 23.22 399.36 21.48C398.56 20.42 397.12 19.92 395.98 19.24C394.96 19.98 393.62 20.36 392.79 21.27C389.7 23.08 386.65 25.3 383.8 27.27Z" fill="#F39F82"/>
<path d="M403.151 17.2101C402.011 16.8101 399.471 18.1201 399.681 16.0801C399.681 16.1101 399.671 16.1301 399.671 16.1601C399.881 15.6501 399.291 15.3301 399.481 14.8301C399.621 14.4601 400.071 14.2901 400.421 14.4901C401.981 14.5601 403.781 14.1501 405.331 14.6901C406.001 15.0401 405.731 15.7501 405.691 16.3501C405.561 17.5401 404.011 17.2001 403.151 17.2101Z" fill="#F39F82"/>
<path d="M389.24 34.7908C388.35 34.8808 387.71 34.4008 387.76 33.4608C387.74 32.7008 387.1 31.1208 388.08 30.8608C388.88 30.9108 390.02 30.6008 390.62 31.1908C390.82 31.8608 390.38 32.6008 390.46 33.3308C390.34 34.0508 390.24 35.0508 389.24 34.7908Z" fill="#B9BEC1"/>
<path d="M401.48 34.1304C400.07 33.9704 401.05 32.1504 400.65 31.2304C400.65 30.1104 402.36 30.4504 403.13 30.3604C404.47 30.7004 403.28 32.5503 403.41 33.5103C403.21 34.3503 402.12 34.1104 401.48 34.1304Z" fill="#B9BEC1"/>
<path d="M272.68 37.3805C273.07 39.5605 273.11 43.2505 270.02 42.8305C270.04 42.8305 270.05 42.8305 270.06 42.8205C269.33 42.8205 268.69 43.0505 268.03 43.1505C266.14 42.3005 263.56 42.9405 261.4 42.7405C256.89 43.6105 252.19 43.5105 247.53 43.5005C244.79 43.1405 241.79 44.4105 239.19 43.3805C237.07 42.2405 236.15 38.0805 238.53 36.8505C239.69 36.4405 241.55 39.1805 242.24 37.3205C242.2 34.8905 241.7 25.3505 246.01 29.9905C250.75 30.3505 255.8 29.9605 260.39 30.5705C260.63 32.7905 260.52 35.2405 260.43 37.5205C259.99 40.9505 259.98 41.2905 263.47 40.8805C268.4 40.7505 267.28 42.6205 267.3 37.2605C267.45 35.2705 267.22 33.3305 266.61 31.4505C266.59 30.9905 267.11 30.6505 267.52 30.8805C267.74 30.2505 268.56 30.4805 269.08 30.4505C270.65 30.3605 272.36 30.3105 272.08 32.4105C272.08 32.4005 272.08 32.3905 272.08 32.3805C272.31 34.0405 272.42 35.7205 272.68 37.3805Z" fill="#F5E07D"/>
<path d="M296.5 34.7301C297.66 34.9801 296.72 36.2901 295.99 36.3901C295.42 36.1601 294.89 36.1101 294.25 36.1401C293.53 36.8901 292.12 36.2001 291.16 36.3501C290.31 36.2401 289.86 36.3601 289.19 36.7401C287.84 36.5901 286.48 36.5001 285.12 36.4101C282.76 35.9501 278.48 36.7401 278.52 33.3001C278.5 30.9001 279.61 28.6301 279.83 26.2601C279.43 25.3301 279.87 24.4201 279.87 23.4701C279.87 23.5001 279.87 23.5201 279.88 23.5501C279.8 21.8301 282.77 23.2201 283.83 22.9401C286.31 22.6701 289.34 22.1101 291.67 22.8401C293.01 23.2101 295.84 22.2101 295.35 24.4601C296.18 26.2601 295.03 35.2301 296.5 34.7301Z" fill="#B9BEC1"/>
<path d="M355.201 11.8203C356.091 12.2803 356.441 11.1903 356.001 10.5703C355.281 9.79026 354.221 11.4503 355.201 11.8203Z" fill="#27456A"/>
<path d="M368.3 12.2606C369.38 12.7406 369.65 11.1106 368.66 10.8406C367.86 10.6606 367.72 11.9306 368.3 12.2606Z" fill="#27456A"/>
<path d="M373.95 38.4404C373.95 38.4504 373.95 38.4504 373.95 38.4604C373.95 38.4404 373.95 38.4204 373.95 38.4004C373.96 38.4104 373.95 38.4304 373.95 38.4404Z" fill="#27456A"/>
<path d="M355.48 32.8C355.66 31.53 353.75 32.2 353 32.06C351.97 32.24 352.38 34.43 352.73 35.1C352.75 36.11 354.12 35.6 354.75 35.78C355.8 35.49 355.4 33.68 355.48 32.8ZM354.61 34.19C354.59 34.43 354.56 34.67 354.52 34.9C354.2 34.87 353.87 34.89 353.54 34.89C353.58 34.71 353.49 34.53 353.36 34.43C353.28 33.93 353.25 33.43 353.28 32.93C353.72 32.93 354.17 32.91 354.62 32.91C354.7 33.33 354.64 33.76 354.61 34.19Z" fill="#27456A"/>
<path d="M368.58 35.6501C369.78 35.6401 370.3 35.8701 370.57 34.4901C371.24 32.5401 370.86 31.9501 368.79 32.3201H368.8C368.78 32.3201 368.76 32.3201 368.74 32.3201H368.75C365.97 32.0501 366.49 33.3901 367.45 35.2901C367.44 35.2701 367.42 35.2601 367.41 35.2401C367.43 35.2701 367.45 35.2901 367.48 35.3101C367.47 35.3001 367.47 35.3001 367.46 35.2901C367.47 35.3001 367.49 35.3201 367.5 35.3301C367.71 35.7201 368.22 35.6301 368.58 35.6501ZM368.11 34.6901C367.94 34.5801 367.92 34.3701 367.85 34.1801C367.85 34.1701 367.84 34.1601 367.84 34.1501C367.84 34.1601 367.84 34.1701 367.85 34.1701C367.85 34.1501 367.84 34.1401 367.84 34.1201C367.75 33.8301 367.68 33.5301 367.63 33.2201C368.42 33.2001 369.2 33.1601 369.98 33.1101C370.06 34.3501 369.27 35.2301 368.11 34.6901Z" fill="#27456A"/>
<path d="M336.89 39.8604C336.89 39.8704 336.89 39.8804 336.89 39.8904C336.88 39.8804 336.88 39.8704 336.89 39.8604Z" fill="#27456A"/>
<path d="M322.64 41.6401C323.28 41.5801 323.86 41.4201 324.51 41.4701H324.5C327.55 41.2601 330.59 41.4501 333.63 41.2501C334.59 41.1001 336.68 42.1701 336.79 40.6501V40.6601C336.93 37.4501 336.95 34.0401 336.84 30.7801C336.68 30.3901 336.06 30.4301 335.98 30.8601C335.96 31.4901 336.14 32.1201 335.72 32.6301C335.62 34.2801 336.65 33.0201 335.71 34.9101C335.73 35.1001 335.8 35.3101 335.97 35.4201C336.13 35.9601 335.71 36.3801 335.95 36.9101C335.9 38.1001 336.14 39.4301 335.88 40.5501C335.28 40.4301 334.65 40.5601 334.05 40.4001C333.76 40.0701 332.97 39.9701 332.83 40.4801C331.52 40.6601 331.82 39.6801 330.54 40.4501C330.99 37.3601 330.86 34.2201 330.91 31.0901C331.03 31.0501 331.15 31.0101 331.27 30.9601C330.6 30.9301 330.78 29.9601 331.42 30.0801C331.21 29.9801 331.01 30.1101 330.83 30.2001C330.97 28.7001 330.74 27.2201 330.96 25.7201C330.97 25.4201 330.99 25.1101 330.97 24.8101C330.62 23.4201 331.92 22.2201 329.77 22.3701C329.95 22.5001 330.17 22.6001 330.25 22.8101C330.1 22.9001 330.06 23.0801 330.03 23.2401C330.02 24.2501 330.26 25.1901 329.77 26.0401C329.86 26.7001 330.24 27.2701 329.72 27.8401C329.5 28.4101 329.9 28.8001 330.02 29.2301C330.09 29.9301 329.75 30.5201 329.73 31.2001C330.75 32.7701 329.23 33.0701 330 34.2701C329.8 35.6701 330.13 37.0401 329.63 38.3301C329.68 38.8001 329.98 39.1401 329.83 39.6401C329.6 39.7701 329.58 40.0501 329.65 40.2801C329.08 40.2801 328.73 40.7001 328.12 40.5001C328.12 40.5001 328.12 40.5001 328.13 40.5001C327.27 40.3501 326.38 40.5801 325.5 40.5001C325.15 40.2501 324.45 40.2301 324.17 40.5901C323.58 40.5401 322.43 39.7301 322.17 40.7501C321.84 40.7401 321.5 40.6901 321.18 40.6301C321.56 39.4301 321.13 38.1401 321.3 36.9201C321.3 36.8801 321.31 36.8301 321.31 36.7901C321.48 35.8501 321.12 34.9401 321.18 34.0201C321.11 33.5501 321.39 32.9401 321.05 32.5801C321.06 32.5901 321.07 32.6001 321.08 32.6101C320.55 32.1101 319.59 31.8901 318.89 32.1901C317.89 32.4001 316.51 31.7401 315.74 32.3801C315.53 32.9601 315.78 33.5801 315.39 34.0701C315.57 34.9801 316.01 35.7501 315.7 36.7701C314.87 37.1601 315.84 38.0001 315.63 38.6401C314.97 39.1301 315.82 39.9201 315.63 40.5701C314.96 39.7001 314.59 40.5101 314.02 40.6401C312.93 40.5901 312.75 39.8201 311.61 40.6601H311.62C311.2 40.6701 310.78 40.6601 310.37 40.5901C310.31 40.2601 309.98 40.1601 309.69 40.1901C309.12 40.0901 308.82 40.9701 308.33 40.4601C307.74 40.2901 307.2 40.8801 306.64 40.4401C306.35 34.9201 306.65 29.5501 306.63 24.0601C306.59 23.6301 306.92 23.0801 306.37 22.8701C306.74 22.7101 306.96 22.3101 306.49 22.1101H306.5C305.71 21.8901 304.58 23.3001 305.76 23.6101C305.91 24.3101 305.39 24.9101 305.61 25.5401C305.94 25.9301 305.68 26.4001 305.59 26.8101C305.64 27.1601 305.92 27.6801 305.7 27.9801C305.48 28.1501 305.51 28.4201 305.58 28.6601C305.69 28.9701 305.86 29.3001 305.7 29.6201C305.77 30.1001 305.5 30.4801 305.57 31.0001C305.69 31.7101 305.48 32.2201 305.33 32.8301C305.47 33.4901 305.76 34.0501 305.67 34.7601C305.01 35.1601 305.74 35.9201 305.64 36.4801C305.13 37.1701 305.97 38.0401 305.74 38.8601C305.1 39.3401 305.92 40.1001 305.79 40.7101C305.52 41.5401 306.65 41.2701 307.12 41.4401C307.11 41.4401 307.1 41.4401 307.09 41.4401C312.3 41.4601 317.47 41.4201 322.64 41.6401ZM319.95 40.4201C319.44 41.0401 318.71 40.5701 318.07 40.4301C317.47 40.3301 317.1 40.8101 316.51 40.6701C316.45 38.9201 316.57 37.2001 316.69 35.4501C316.78 34.6901 316.08 33.4901 316.88 33.0401C319.62 33.5001 320.85 31.6401 320.18 35.0801C320.61 35.5301 320.53 36.0801 320.49 36.6901V36.6801C320.21 37.1001 319.95 37.8501 320.47 38.2801C320.55 39.0001 320.41 39.6801 320.42 40.4001C320.25 40.3801 320.09 40.3701 319.95 40.4201Z" fill="#27456A"/>
<path d="M333.48 33.08C332.44 32.55 332.05 35.02 332.54 35.51C332.78 35.83 333.27 35.82 333.63 35.8C334.22 35.31 334.1 33.56 333.48 33.08Z" fill="#27456A"/>
<path d="M314.42 28.3507C314.2 26.5107 315.15 25.1707 312.53 25.4007C311.39 25.2707 310.32 25.7207 309.21 25.6407C308.57 25.7607 308.9 26.5707 308.88 27.0207V27.0107C308.88 27.0407 308.88 27.0707 308.88 27.1007C308.88 27.1607 308.89 27.2207 308.89 27.2807C308.89 27.2707 308.89 27.2607 308.89 27.2507C309.13 28.2007 308.25 34.2907 309.65 33.6207C315.73 32.8607 313.8 34.0807 314.42 28.3507ZM313.01 26.2807C313.18 26.3007 313.34 26.3307 313.51 26.3507C313.49 27.1307 313.54 27.8907 313.47 28.6607C313.03 28.7507 312.56 28.6407 312.11 28.6407C312.2 27.8507 312.05 27.0307 312.27 26.2807C312.52 26.2807 312.77 26.2707 313.01 26.2807ZM310.17 26.5207C310.56 26.4607 310.94 26.2907 311.34 26.2707C311.22 27.0407 311.34 27.8307 311.25 28.6107C309.28 29.1707 309.9 27.9907 309.74 26.5607C309.88 26.5607 310.02 26.5407 310.17 26.5207ZM309.83 32.7407C309.81 32.0307 309.86 31.3207 309.77 30.6207V30.6307C309.54 29.4707 310.05 29.6307 311 29.5107C311.23 30.5707 310.83 31.5607 311.05 32.6307C310.65 32.6807 310.24 32.7207 309.83 32.7407ZM312.66 32.3307C312.41 32.3507 312.15 32.3607 311.91 32.4307C311.84 31.4607 311.94 30.4807 312.05 29.5107C312.53 29.5207 313.01 29.5907 313.48 29.5507C313.43 30.4707 313.32 31.3907 313.27 32.3007C313.07 32.3107 312.86 32.3207 312.66 32.3307Z" fill="#27456A"/>
<path d="M322.05 33.2903C322.19 34.4203 323.77 33.3603 324.54 33.5803C325.44 33.3703 326.91 33.9303 327.3 32.9303C326.34 31.6203 328.29 25.8903 326.47 25.6503C326.49 25.6503 326.51 25.6603 326.53 25.6603C325.44 25.5603 324.33 25.7503 323.24 25.7103C322.53 25.4203 322.28 26.2903 322.37 26.8303C322.43 28.5503 322.29 30.1503 322.37 31.8703C322.39 32.2103 322.39 32.5703 322.45 32.9003C322.25 32.9703 322.08 33.0703 322.05 33.2903ZM323.32 32.7903C323.21 31.8903 323.2 30.9403 323.28 30.0403C323.57 30.0703 323.86 30.1103 324.16 30.1203C324.26 30.9803 324.3 31.8503 324.22 32.7303C323.91 32.7403 323.61 32.7603 323.32 32.7903ZM325.6 32.5903C325.43 32.6203 325.25 32.6003 325.09 32.6503C325.1 32.5903 325.1 32.5303 325.11 32.4703C325.11 32.4903 325.11 32.5103 325.11 32.5303C325.11 32.5003 325.11 32.4703 325.12 32.4403C325.12 32.4203 325.12 32.4003 325.12 32.3803C325.15 31.6403 325.11 30.8903 325.17 30.1503C325.53 30.2103 325.9 30.2003 326.26 30.1503C326.26 30.1903 326.26 30.2303 326.25 30.2603C326.16 31.0103 326.15 31.7803 326.17 32.5403C325.98 32.5503 325.79 32.5703 325.6 32.5903ZM325.89 26.5203C326.84 26.3803 326.07 28.5803 326.3 29.2803C325.95 29.3103 325.6 29.3503 325.24 29.2903C325.27 28.3803 325.24 27.4203 325.18 26.5503C325.42 26.5303 325.65 26.5303 325.89 26.5203ZM323.7 26.6203C323.88 26.6003 324.07 26.5703 324.25 26.5503C324.33 27.4403 324.45 28.3503 324.37 29.2503C324 29.2603 323.64 29.1803 323.27 29.1503C323.28 28.3003 323.26 27.4503 323.24 26.5903C323.39 26.6203 323.54 26.6303 323.7 26.6203Z" fill="#27456A"/>
<path d="M292.541 31.5902C293.201 32.4702 294.491 31.9702 295.431 32.0102C296.611 32.0002 296.341 30.2102 296.231 29.4102C294.471 26.2302 291.681 28.8802 292.541 31.5902ZM293.671 30.2702C293.751 29.8302 293.831 29.3702 294.101 28.9902C294.101 28.9902 294.101 29.0002 294.091 29.0002C294.531 28.8102 294.881 29.4502 295.121 29.7602C295.201 30.1802 295.071 30.6102 295.071 31.0402C294.241 31.0302 293.271 31.5102 293.681 30.2602C293.671 30.2602 293.671 30.2702 293.671 30.2702Z" fill="#27456A"/>
<path d="M299.761 34.3508C300.241 34.2908 300.571 33.8508 300.321 33.4108V33.4008C299.831 31.3108 299.661 29.1908 299.331 27.0108C299.111 25.3808 299.201 24.7508 297.291 24.8608C294.151 24.5808 291.071 25.1308 287.871 24.8208C288.191 24.0908 287.841 23.1908 287.981 22.4008C288.221 21.2108 284.941 21.7908 284.391 22.0608C283.611 22.3108 284.091 23.2108 284.041 23.7908C284.071 24.2808 283.671 24.5708 283.781 25.0808C283.041 25.4008 281.621 24.8708 281.291 25.7308C281.251 25.9608 281.431 26.1508 281.661 26.2608C281.661 26.9108 281.511 27.4908 281.291 28.0608C281.481 29.2108 280.681 30.0108 280.881 31.1208C280.881 31.1108 280.881 31.1008 280.881 31.0908C280.601 31.7208 280.611 32.6508 280.741 33.3508C280.001 33.5708 280.331 34.3308 280.411 34.8608V34.8508C280.761 36.2908 280.031 36.0508 279.961 37.0408C279.931 37.4808 280.321 37.8008 280.561 38.0608C280.251 38.3708 280.391 38.8408 280.571 39.1608C280.571 39.1508 280.571 39.1408 280.571 39.1208C280.571 39.1408 280.571 39.1608 280.581 39.1808C280.831 39.9008 280.501 41.6508 281.511 41.6908C285.791 41.6108 290.231 41.6308 294.591 41.6508H294.581C296.311 41.5608 300.711 42.3308 299.741 39.4708C299.751 37.8508 299.351 35.8608 299.761 34.3508ZM281.831 33.2508C282.041 30.9008 282.651 28.6308 282.881 26.2408C283.541 26.0108 284.841 26.3408 285.041 25.5008C285.291 24.6908 285.361 23.8308 285.171 22.8808C285.711 22.9108 286.251 22.7908 286.781 22.7308C286.831 24.9308 285.991 26.1008 288.921 25.9308C290.891 26.3908 298.591 24.5608 298.151 27.1708C298.491 29.2808 298.501 31.5708 299.121 33.4808C295.341 33.3308 291.531 33.7408 287.791 33.2208C286.791 33.4608 285.731 33.8208 284.711 33.3108C283.731 33.1308 282.731 33.5808 281.731 33.3908C281.771 33.3508 281.801 33.3008 281.831 33.2508ZM298.551 40.3708C296.841 40.5508 295.291 40.6808 293.541 40.6208C292.971 40.6508 292.501 40.6308 291.971 40.4508C291.241 40.4408 290.351 40.8508 289.701 40.6208C288.681 40.0608 287.371 41.0308 286.281 40.4808C285.281 40.6708 284.411 40.7808 283.401 40.4808C282.911 40.4508 282.511 40.6808 282.021 40.5208C281.991 40.5208 281.971 40.5108 281.941 40.5108C281.711 38.5108 281.681 36.4608 281.541 34.3908C287.161 34.4508 292.731 34.6308 298.361 34.3908C298.591 35.1308 298.291 35.6808 298.081 36.3108C298.081 36.3008 298.081 36.2808 298.081 36.2708C297.961 36.7208 298.731 36.9908 298.261 37.3508C298.191 37.4708 298.181 37.6108 298.201 37.7408C298.471 38.2108 298.651 38.7308 298.501 39.2808C298.501 39.6508 298.751 40.0708 298.551 40.3708Z" fill="#27456A"/>
<path d="M290.28 36.9102C290.51 35.0602 288.51 35.6802 287.35 35.7502C286.61 35.8502 285.84 35.7002 285.11 35.8402C285.08 35.8502 285.05 35.8602 285.02 35.8802C285.02 35.8802 285.03 35.8802 285.04 35.8702C284.35 36.4002 284.37 37.3902 284.34 38.2002C284.34 38.1802 284.34 38.1602 284.34 38.1402C283.93 40.0102 285.88 39.1802 286.96 39.3802C289.07 39.8702 290.93 39.4902 290.28 36.9102ZM286 38.3702C285.84 38.3802 285.69 38.3902 285.53 38.4102C285.54 37.8702 285.55 37.3302 285.7 36.8102C285.7 36.8202 285.69 36.8402 285.69 36.8502C285.88 36.7302 286.25 36.8402 286.5 36.8102C286.54 37.2202 286.53 37.6302 286.53 38.0502C286.53 38.0402 286.53 38.0402 286.53 38.0302C286.53 38.1402 286.52 38.2502 286.53 38.3602C286.36 38.3502 286.18 38.3502 286 38.3702ZM289.13 38.4002C288.83 38.5902 288.19 38.5202 287.78 38.5302C287.76 38.5302 287.74 38.5202 287.72 38.5202C287.78 37.1302 287.31 36.5302 289.06 36.6002C289.11 37.2002 289.22 37.8002 289.13 38.4002Z" fill="#27456A"/>
<path d="M256.32 23.0902C256.39 21.8402 257.04 20.5002 255.11 20.9102C256.41 15.3002 250.04 15.4602 251 21.0002C250.53 20.9602 250.03 21.2402 250.08 21.7702C249.2 23.9602 251.63 23.1702 252.95 23.2602C252.94 23.2602 252.92 23.2602 252.91 23.2602C253.99 23.1102 255.42 23.7002 256.32 23.0902ZM251.82 20.9802C251.78 20.7402 251.76 20.4902 251.75 20.2402V20.2502C251.75 20.2202 251.75 20.2002 251.75 20.1702C252.01 20.1902 252.27 20.2102 252.53 20.2002C252.38 20.8902 253.45 20.9002 253.35 20.2102C253.73 20.1502 254.03 20.2802 254.38 20.2802C254.38 20.5302 254.27 20.7102 254.18 20.9302C253.4 20.9302 252.61 20.9502 251.82 20.9802ZM253.57 17.6202C254.32 17.9602 254.21 18.6802 254.3 19.3202C254 19.3402 253.7 19.4102 253.4 19.4002C253.34 18.8102 253.75 18.0802 253.42 17.5602C253.47 17.5702 253.52 17.6002 253.57 17.6202ZM252.04 18.9002C252.18 18.5702 251.94 18.2202 252.27 17.9602C252.4 18.0302 252.58 18.0302 252.7 17.9402C252.71 18.4202 252.6 18.9002 252.59 19.3902C252.33 19.4102 252.07 19.3402 251.81 19.3602C251.78 19.1402 251.95 19.0802 252.04 18.9002ZM253.42 22.4402C252.64 22.4202 251.86 22.4602 251.09 22.4902C250.99 22.4802 250.89 22.4602 250.79 22.4502C250.83 22.2502 250.86 22.0402 250.88 21.8302C251.71 21.8002 252.55 21.7802 253.38 21.7502C253.36 21.7502 253.34 21.7502 253.33 21.7502C254.09 21.7402 254.86 21.7602 255.63 21.7002C255.68 22.0102 255.54 22.2202 255.45 22.5002C254.77 22.4902 254.09 22.4602 253.42 22.4402Z" fill="#27456A"/>
<path d="M265.79 22.4701C265.68 21.7501 265.96 20.5701 264.83 20.9001C265.61 18.1801 264.11 15.9001 261.23 17.3001C260.41 18.3201 260.65 19.7901 260.53 21.0201C260.33 21.0401 260.18 21.2301 260.18 21.4301C259.21 21.1501 259.92 23.1801 260.29 23.2401C261.91 23.4501 263.62 23.2001 265.27 23.3901C265.74 23.4601 266.15 22.8101 265.79 22.4701ZM261.49 20.9801C261.12 20.9301 261.46 20.1001 261.41 19.7701V19.7601C261.64 19.9101 261.94 19.8201 262.19 19.7801C262.18 20.1801 262.18 20.5801 262.19 20.9801C261.97 20.9801 261.73 20.9801 261.49 20.9801ZM263.01 20.9701C263.01 20.5401 263.01 20.1201 263.02 19.6901C263.4 19.6401 263.8 19.8301 264.17 19.7101C264.31 20.2801 263.82 20.4601 263.79 20.9301C263.53 20.9401 263.27 20.9501 263.01 20.9701ZM263.32 17.8601C263.81 17.7201 264.27 18.4501 264.05 18.8601C263.72 18.8801 263.39 18.8801 263.05 18.8701C263.06 18.5101 263.1 18.1601 263.07 17.8001C263.14 17.8401 263.22 17.8701 263.32 17.8601ZM261.45 18.9401C261.48 18.7301 261.52 18.5301 261.59 18.3301C261.68 18.0301 261.83 17.8501 262.15 17.8101C262.36 18.5601 262.36 19.1001 261.45 19.0801C261.43 19.0401 261.45 18.9901 261.45 18.9401ZM264.64 22.5201C263.42 22.2301 261.24 23.1101 260.57 22.0301C260.54 21.9701 260.51 21.8901 260.49 21.8201C261.98 21.8401 263.42 21.7501 264.91 21.7201C264.89 22.0001 264.95 22.2701 264.97 22.5501C264.86 22.5401 264.75 22.5301 264.64 22.5201Z" fill="#27456A"/>
<path d="M260.93 26.8504C259.9 27.1904 261.08 28.3404 261.69 27.7204C262.04 27.2604 261.38 26.7604 260.93 26.8504Z" fill="#27456A"/>
<path d="M259.251 27.1803C258.621 26.4903 257.821 27.6103 258.561 28.0403C259.071 28.4203 259.811 27.6203 259.251 27.1803Z" fill="#27456A"/>
<path d="M256.97 27.1608C256.37 26.7308 255.71 27.7708 256.49 27.9708C257.06 28.5008 257.74 27.4408 256.97 27.1608Z" fill="#27456A"/>
<path d="M255.48 27.25C254.57 26.87 254.03 28.17 255.11 28.28C255.54 28.25 255.99 27.49 255.48 27.25Z" fill="#27456A"/>
<path d="M253.361 27.3505C252.731 26.9905 252.051 27.5505 252.541 28.1705C253.071 28.5405 254.081 27.8705 253.361 27.3505Z" fill="#27456A"/>
<path d="M265.46 34.9001C265.34 34.4801 264.9 34.5801 264.58 34.5701C264 34.7101 264.2 35.5001 264.17 35.9401C264.22 36.3401 264.68 36.3201 264.95 36.4701C265.88 36.7401 265.55 35.4101 265.46 34.9001Z" fill="#27456A"/>
<path d="M255.18 36.6307C255.5 37.1407 256.22 36.6007 256.72 36.8407C256.71 36.8407 256.7 36.8407 256.69 36.8307C256.71 36.8307 256.72 36.8407 256.74 36.8407C256.74 36.8407 256.74 36.8407 256.73 36.8407C257.26 36.8707 257.93 37.2307 258.38 36.9307C258.8 35.8107 258.53 34.0007 257.77 32.9907C255.38 31.6107 254.8 34.9307 255.18 36.6307ZM255.91 35.3707C255.91 34.5407 256.06 33.0207 257.24 33.6207C257.87 35.6307 258.46 36.5207 255.91 36.0007C255.91 35.7907 255.9 35.5807 255.91 35.3707Z" fill="#27456A"/>
<path d="M249.671 36.3202C250.021 37.1602 251.331 36.7602 252.071 36.9602C253.761 37.3702 253.071 34.6702 252.711 33.7402C250.651 31.0902 249.121 33.9702 249.671 36.3202ZM250.441 34.4502C250.641 32.8602 252.171 33.6702 252.211 34.8802C252.531 35.9702 252.181 36.4002 251.081 36.0502C250.101 36.2802 250.441 35.1002 250.441 34.4502Z" fill="#27456A"/>
<path d="M401.37 19.2407C401.16 18.4707 401.33 17.6107 401.11 16.8907C400.54 16.7107 399.93 17.0407 400.34 17.6707C400.37 18.0607 400.4 18.4607 400.44 18.8507C400.44 18.8507 400.44 18.8507 400.43 18.8407C400.28 19.5907 401.25 20.2207 401.37 19.2407Z" fill="#27456A"/>
<path d="M404.78 21.3401C404.75 20.1001 404.74 18.8401 404.47 17.6001C404.41 17.0501 403.58 17.0301 403.57 17.6201C403.95 19.0201 403.57 20.4101 404.01 21.7901C404.32 22.1801 404.96 21.7801 404.78 21.3401Z" fill="#27456A"/>
<path d="M397.94 28.1404C398.31 25.4904 397.91 20.2304 394.09 23.0004C393.37 24.9204 393.38 27.4804 394.06 29.3704C394.45 29.6104 394.79 29.2304 395.23 29.3904C397.16 28.8604 397.77 30.1404 397.94 28.1404ZM396.46 23.3104C397.26 23.8104 397.01 24.9204 397.13 25.7204C396.84 25.5504 396.5 25.4604 396.16 25.5104C396.18 24.8704 396.12 24.2304 396.09 23.5904V23.6004C396.06 23.4504 396.17 23.3204 396.13 23.1704C396.24 23.2004 396.35 23.2504 396.46 23.3104ZM394.7 23.7704C394.72 23.4804 394.95 23.3704 395.2 23.3004C395.22 24.0704 395.31 24.8304 395.28 25.6004C395 25.6204 394.72 25.6804 394.44 25.6104C394.47 24.9904 394.57 24.3704 394.7 23.7704ZM395 28.5004C394.32 28.2104 394.65 27.2504 394.48 26.5904C394.73 26.5304 394.98 26.4704 395.26 26.4604C395.34 27.1504 395.15 27.8404 395.19 28.5204C395.12 28.5304 395.06 28.5204 395 28.5004ZM396.57 28.3404C396.39 28.3504 396.2 28.3804 396.02 28.4104C396.03 28.3304 396.01 28.2504 396.03 28.1604C396.14 27.7604 396.15 27.3504 396.12 26.9404C396.11 26.7504 396.11 26.5604 396.12 26.3704C396.53 26.2104 396.77 26.6504 397.13 26.6504C397.13 27.2204 397.16 27.7904 397.03 28.3504C396.89 28.3304 396.73 28.3304 396.57 28.3404Z" fill="#27456A"/>
<path d="M387.62 41.8703C387.82 41.8903 388.02 41.9004 388.22 41.9104H388.21C393.49 42.2404 398.6 42.0903 403.85 42.1903C404.42 42.0903 405.67 42.4404 405.71 41.5904C405.62 41.3404 405.58 41.0704 405.86 40.9604C406.26 40.2504 406.07 39.2804 405.99 38.5204C406.32 35.0104 406.35 31.4804 406.64 28.0004V28.0104C406.65 27.9504 406.65 27.9004 406.65 27.8404C406.65 27.8304 406.65 27.8204 406.65 27.8104C406.65 27.8004 406.65 27.7904 406.65 27.7804V27.7904C406.63 27.1804 406.81 26.5304 406.64 25.9604C406.57 25.6704 406.34 25.5204 406.1 25.3604C406.03 25.4704 406.03 25.6204 406.08 25.7504C405.47 26.3104 405.99 27.4604 405.72 28.2204C404.84 28.4804 405.71 29.1604 405.67 29.6704C405.88 30.3604 405.24 30.4904 405.23 31.0804C405.7 32.0004 405.62 32.9803 405.3 34.0103C404.77 34.5503 405.63 35.2003 405.31 35.8703C404.78 36.5603 405.64 37.6604 405.07 38.5504C404.81 39.1904 405.44 39.6004 405.21 40.2904C404.99 40.6004 404.69 40.8304 404.78 41.3004C402.89 41.5704 403.75 40.4804 401.7 41.2704C400.86 41.5404 399.62 40.1004 399.25 41.3904C399.02 41.3904 398.8 41.3903 398.57 41.3703C399.01 39.9503 398.72 38.4103 398.91 36.9403C398.91 36.9103 398.92 36.8704 398.92 36.8404C398.92 36.8604 398.92 36.8804 398.91 36.9004C398.76 36.0604 399.5 33.7604 398.38 33.7104C396.98 33.9104 393.19 32.8903 392.88 34.4403C392.96 36.6203 392.82 38.8104 392.79 40.9904C392.27 41.0004 391.99 41.4404 391.42 41.2704C390.75 41.2904 390.11 40.7604 389.44 41.1104C388.22 41.0404 387.07 41.1003 385.88 41.1003H385.89C385.23 40.9503 385.7 39.8604 385.54 39.3304C385.19 37.5504 385.43 35.7304 385.19 33.9104C384.78 33.1004 385.33 26.7004 383.93 27.3004C383.15 27.8604 384.18 28.9604 383.98 29.8704C383.85 30.4804 383.3 31.6004 384.23 31.9604C384.45 32.7704 383.33 34.2304 384.41 34.5904C384.64 35.4304 383.92 36.2104 384.32 36.9804C384.62 37.1404 384.53 37.4304 384.52 37.7404C383.77 39.5104 385.06 38.9304 384.49 39.9504C384.57 40.4404 384.82 40.8804 384.81 41.3904C385.26 42.1904 386.8 42.0103 387.62 41.8703ZM394.11 34.4704C394.96 34.4804 395.82 34.4903 396.67 34.5303C397.13 34.5703 397.6 34.5203 398.06 34.5303C398.21 35.6403 397.92 36.7404 397.98 37.8004C397.98 37.8004 397.98 37.8004 397.98 37.7904C398.02 38.8604 397.94 39.8803 397.82 40.9403C397.72 41.1003 397.34 40.9904 397.2 41.2104C396.98 41.6204 396.38 41.3204 395.98 41.3104C395.43 41.2904 395.14 40.6603 394.55 40.9203C394.22 41.1403 394.09 41.3504 393.65 41.2104C393.71 38.9904 393.8 36.7704 393.77 34.5504C393.88 34.5904 394.01 34.5504 394.11 34.4704Z" fill="#27456A"/>
<path d="M394.13 37.55C394.13 37.56 394.13 37.57 394.13 37.58V37.57C394.17 38.29 395.3 38.01 394.98 37.36C394.79 36.9 394.1 37.06 394.13 37.55Z" fill="#27456A"/>
<path d="M354.981 41.2904C355.151 41.1304 355.231 40.8704 355.201 40.6504C356.341 40.7404 357.491 40.4904 358.511 41.0704C361.141 40.5004 364.231 40.8304 367.031 40.7204C366.741 41.7204 367.791 41.5604 368.421 41.4604C368.411 41.4604 368.401 41.4604 368.401 41.4604C371.261 41.2304 374.151 41.7104 376.921 41.2504C380.711 41.1904 379.211 34.6304 375.811 37.6504C375.421 37.0404 374.741 36.7304 374.041 36.6804C373.851 31.0704 374.471 25.5004 374.021 19.9404C374.641 15.6404 374.371 11.4004 373.421 7.19035C373.421 7.19035 373.421 7.19035 373.421 7.20035C373.371 6.99035 373.591 6.77035 373.501 6.53035C373.361 6.22035 372.901 5.94035 372.561 6.02035C371.871 5.62035 371.321 5.17035 370.611 4.79035C369.351 3.80035 367.631 3.10035 366.481 2.13035C366.431 1.64035 365.671 1.63035 365.601 2.12035C363.121 1.87035 360.471 2.24035 358.071 1.98035C357.441 1.72035 356.821 2.51035 356.221 2.68035C356.221 2.68035 356.221 2.68035 356.231 2.67035C350.551 5.47035 352.011 4.13035 350.271 9.72035C350.151 10.4304 349.951 11.1604 349.851 11.8704C349.041 12.6604 349.641 14.2004 349.431 15.2604C348.401 15.3404 349.391 16.5904 349.131 17.2304C349.011 17.7604 348.421 18.6604 349.191 19.0704C349.261 19.9604 349.101 20.8004 348.691 21.5204C348.871 22.0904 349.071 22.6504 348.991 23.2904C348.351 23.4704 348.451 24.5904 349.051 24.7504C349.111 25.3204 349.121 25.8904 349.061 26.4604C348.241 27.2004 349.431 28.0004 349.091 28.8604C348.011 29.5104 349.491 30.5104 349.141 31.4404C347.991 31.8604 349.201 33.2803 348.981 34.1003C348.051 34.6403 349.181 35.6603 348.971 36.4203C348.971 36.4703 348.961 36.5204 348.961 36.5804C348.961 36.5704 348.961 36.5704 348.961 36.5604C348.961 36.6604 348.941 36.7703 348.931 36.8703C348.191 36.9103 347.431 37.1904 347.041 37.8604C345.081 35.5604 342.671 39.4504 344.641 40.8304C345.921 41.8604 353.571 42.5504 354.981 41.2904ZM364.391 39.1404C364.391 39.2704 364.321 39.3804 364.341 39.5204C363.721 39.4704 363.461 40.0804 362.841 39.6804C362.151 39.7404 361.641 40.1704 360.891 40.0004C359.991 39.3004 359.881 40.3204 358.751 39.7704C358.641 39.1404 358.941 38.6504 358.961 38.0604C358.951 37.7504 358.951 37.3404 358.661 37.1504C358.741 36.2504 359.211 35.6004 359.671 34.9604C359.571 34.4504 359.981 33.7804 360.551 33.8004C360.851 34.0704 361.121 33.7903 361.431 33.7603C361.421 33.7603 361.411 33.7603 361.401 33.7603C361.831 33.7703 362.251 33.6104 362.671 33.6604C362.711 34.2304 363.521 34.2704 363.791 34.7404C363.661 34.9604 363.741 35.2404 363.911 35.4104C364.661 35.7704 364.401 36.9504 364.241 37.6404C364.371 38.1604 364.471 38.6104 364.391 39.1404ZM367.141 37.8703C366.681 38.4203 366.911 39.1604 367.001 39.8004C366.431 39.8904 365.841 39.9103 365.261 39.8703C365.181 36.6603 365.851 34.8504 362.941 32.8404C361.691 32.9104 359.871 32.5504 359.091 33.7704C357.891 35.7304 357.561 37.6804 357.881 39.9304C357.661 39.9004 357.441 39.8704 357.231 39.8204C356.891 39.7504 356.451 39.4304 356.171 39.8104C355.871 39.6404 355.481 39.8204 355.161 39.8404C355.481 37.4804 353.171 36.5504 351.731 38.4604C351.331 37.7004 350.611 37.1104 349.751 36.9504C349.781 34.9004 349.821 32.8704 349.971 30.8204C357.371 30.1204 364.881 30.8704 372.291 30.6504C373.271 30.5204 373.321 31.5504 373.161 32.3104C372.871 32.4204 372.781 32.7404 372.791 33.0204C372.771 33.3704 372.741 33.8604 373.101 34.0404C373.251 34.9304 372.531 35.7804 372.981 36.6504C371.941 36.7704 370.861 37.1504 370.171 37.9604C369.521 36.9804 367.881 36.9403 367.141 37.8703ZM349.821 22.4604C357.601 22.5804 365.521 22.9904 373.171 22.4604C373.181 23.0004 372.451 24.1004 373.381 24.2104C373.431 25.1704 373.261 26.1504 373.071 27.0704C372.001 27.1104 370.921 26.9804 369.861 27.1204C370.861 22.7304 370.551 23.4504 366.521 23.6404C366.041 23.5304 365.661 23.9704 365.931 24.4104C366.041 25.2904 365.891 26.2204 365.991 27.1104C365.011 27.1304 364.031 27.0604 363.051 27.0404C363.451 23.5204 363.601 23.1704 359.941 23.6604C357.771 23.2504 359.181 26.0004 359.491 27.0804C358.101 27.1904 356.871 26.8104 355.501 26.8404C355.491 26.0104 355.411 25.1104 355.401 24.2504C355.401 24.2504 355.401 24.2604 355.411 24.2704C355.351 23.7504 355.011 23.3404 354.451 23.4404C351.761 23.2104 352.321 23.7104 352.241 25.9604C352.601 27.6303 350.931 26.7904 349.851 26.8404C350.071 25.3804 349.761 23.9304 349.821 22.4604ZM373.191 29.4604C373.011 29.4904 372.861 29.6204 372.791 29.7904C365.181 29.9804 357.481 29.1804 349.911 29.9804C349.761 29.2504 350.081 28.4904 349.971 27.7404C357.751 27.8804 365.641 28.1904 373.321 27.9104C373.321 28.4304 373.261 28.9504 373.191 29.4604ZM353.151 24.5504C353.141 24.4704 353.131 24.3804 353.131 24.3004C355.211 23.8504 354.311 25.5204 354.751 26.8604C354.201 26.8804 353.651 26.9004 353.091 26.9204C353.091 26.1304 353.181 25.3404 353.151 24.5504ZM362.311 24.3604C362.351 25.0704 362.361 25.7804 362.311 26.4804C362.311 26.5204 362.301 26.5604 362.291 26.6004C362.231 26.7404 362.251 26.9004 362.331 27.0204C361.651 26.9204 361.051 27.1404 360.381 27.1004C360.291 26.5904 359.981 26.0904 359.871 25.5504C359.771 25.2204 359.701 24.8804 359.651 24.5304C360.521 24.5304 361.381 24.3904 362.241 24.3604C362.271 24.3604 362.291 24.3604 362.311 24.3604ZM366.841 24.4904C367.711 24.4604 368.571 24.3904 369.441 24.3604C369.511 25.2804 368.981 26.2004 369.171 27.0804C368.391 27.1504 367.631 27.1804 366.831 27.1104C366.861 26.2504 366.821 25.3704 366.841 24.4904ZM374.171 37.5604C374.971 37.6204 375.291 38.3303 375.351 39.0303C375.571 39.4203 376.201 39.2204 376.151 38.7704C377.251 36.5204 379.371 38.4303 377.791 40.1703C374.621 40.9903 371.391 40.2303 368.101 40.6003C367.991 40.0003 367.761 39.3804 367.741 38.7404C367.721 38.0104 368.791 37.9204 369.281 38.2304C369.721 38.4704 369.631 39.1804 370.121 39.2904C370.281 39.3104 370.471 39.2304 370.551 39.0804C371.051 37.7204 372.861 37.3404 374.171 37.5604ZM367.141 8.69035C367.611 8.09035 368.071 7.49035 368.511 6.87035C369.051 7.58035 369.451 8.51035 370.111 9.06035C369.011 8.99035 367.831 9.36035 366.781 9.18035C366.901 9.02035 367.021 8.86035 367.141 8.69035ZM354.201 8.44035C354.701 7.94035 355.241 7.48035 355.771 7.02035C356.161 7.59035 356.881 7.95035 357.151 8.57035C356.151 8.44035 355.121 8.47035 354.111 8.53035C354.141 8.50035 354.171 8.47035 354.201 8.44035ZM349.991 16.9504C350.211 15.6404 350.331 14.2604 350.371 12.8704C354.081 12.5504 353.271 13.1404 353.641 9.41035C355.001 9.33035 356.381 9.24035 357.711 9.56035C357.801 10.0104 357.531 10.3804 357.601 10.8204C357.571 11.1304 358.051 11.3104 357.811 11.6004C356.821 13.7204 359.591 12.1204 360.611 12.8204C362.361 12.5004 364.181 12.6604 365.961 12.8404C366.921 12.5904 366.291 10.9404 366.561 10.1604C367.241 10.1204 367.931 10.0204 368.621 9.98035C368.611 9.98035 368.601 9.98035 368.591 9.98035C369.201 9.94035 369.811 9.89035 370.421 9.93035C370.411 10.1104 370.391 10.2804 370.381 10.4604C370.381 10.4504 370.381 10.4504 370.381 10.4404C370.361 10.6804 370.361 10.9304 370.351 11.1804C370.281 12.2504 370.391 12.8604 371.611 12.5304H371.601C373.181 12.3104 373.661 12.4404 373.481 14.1504C373.681 15.3904 372.911 16.2704 373.041 17.3504C374.401 20.0904 371.741 19.4904 369.891 19.3804C369.811 17.7204 370.871 15.2104 368.161 15.9004C368.151 15.9004 368.141 15.9004 368.131 15.9004C365.071 15.6304 366.371 16.6804 365.731 18.7704C365.521 18.9304 365.481 19.2404 365.671 19.4404C364.661 19.4904 363.501 19.1104 362.581 19.5004C362.611 18.7004 362.741 17.9004 362.831 17.1004V17.1104C363.031 15.1404 360.311 16.1104 359.141 15.7204C358.391 16.3004 358.821 18.4704 358.701 19.4504C357.691 19.4604 356.671 19.4704 355.661 19.4704C355.661 19.4004 355.651 19.3304 355.621 19.2704C355.811 19.1704 355.851 18.9604 355.841 18.7704C355.841 18.7904 355.841 18.8104 355.831 18.8304C355.921 17.8404 356.101 16.8304 355.851 15.8604V15.8704C355.441 14.9704 353.861 15.5704 353.041 15.4804C352.211 15.9804 352.211 18.3704 352.671 19.1604C351.891 19.1404 351.071 19.2904 350.401 18.9204C350.271 18.9204 350.151 18.9804 350.061 19.0704C349.871 18.4604 349.971 17.6304 349.991 16.9504ZM369.151 17.6504C369.151 17.6604 369.151 17.6804 369.151 17.6904C369.091 18.2804 369.041 18.8804 369.061 19.4704C368.181 19.5404 367.321 19.5504 366.441 19.4704C366.841 18.7204 366.841 17.6704 366.891 16.8004C367.651 16.7704 368.401 16.7904 369.151 16.7304C369.181 17.0404 369.181 17.3504 369.151 17.6504ZM361.781 19.2104C361.751 19.3104 361.761 19.4204 361.801 19.5104C361.051 19.5604 360.331 19.3804 359.581 19.4404C359.561 18.5204 359.671 17.5904 359.671 16.6604C362.641 16.8004 361.951 16.4104 361.781 19.2104ZM355.001 19.0004C354.431 19.0304 353.871 19.0804 353.301 19.1204C353.471 18.2704 353.141 17.2304 353.451 16.3104C353.991 16.3104 354.541 16.3104 355.081 16.2904C355.241 17.1804 355.011 18.1004 355.001 19.0004ZM350.041 19.0504C350.041 19.0404 350.041 19.0304 350.041 19.0204C350.041 19.0204 350.041 19.0404 350.041 19.0504ZM349.731 21.5804C349.891 21.0504 349.991 20.5004 350.031 19.9404C356.571 20.4504 363.371 20.4704 369.971 20.2804C369.961 20.2804 369.961 20.2804 369.951 20.2804C369.961 20.2804 369.981 20.2804 369.991 20.2804C371.111 20.3404 372.461 20.1304 373.261 20.9004C373.271 21.1604 373.271 21.4104 373.251 21.6704C365.471 21.8904 357.541 21.7104 349.711 21.6304C349.721 21.6204 349.721 21.6004 349.731 21.5804ZM354.341 39.7803C354.341 39.7703 354.341 39.7603 354.341 39.7603C354.391 40.1003 354.141 40.4304 354.271 40.7504C353.951 40.9804 353.691 40.6904 353.351 40.7704C352.991 40.9604 352.821 41.2303 352.351 41.1703C352.131 40.2403 351.491 40.9704 351.051 41.1104C350.521 41.2704 350.341 40.8203 349.891 40.7603C348.641 41.0103 347.291 40.8303 346.051 40.4403C345.791 40.2103 345.481 40.1303 345.181 40.2603C344.601 39.6903 344.691 38.5304 345.371 38.0204C345.761 38.0204 346.201 38.1204 346.411 38.4804C346.551 39.0404 347.311 39.6104 347.511 38.7704V38.7803C348.251 36.6903 351.171 37.9403 351.281 39.7803C351.901 40.3803 352.511 38.3104 353.541 38.1804H353.531C354.221 38.3504 354.431 39.1803 354.341 39.7803Z" fill="#27456A"/>
<path d="M269.54 38.5405C269.57 38.5405 269.6 38.5405 269.63 38.5205C269.6 38.5305 269.57 38.5305 269.54 38.5405Z" fill="#27456A"/>
<path d="M269.64 38.5207C269.65 38.5207 269.66 38.5107 269.67 38.5107C269.66 38.5107 269.64 38.5207 269.63 38.5307C269.63 38.5207 269.64 38.5207 269.64 38.5207Z" fill="#27456A"/>
<path d="M269.97 41.7401C271.04 41.1501 270.38 39.6501 270.58 38.6301C270.9 37.3801 270.3 36.0801 270.63 34.8901C270.77 34.2601 270.58 33.5601 270.67 32.9101C270.3 32.1901 270.62 31.4501 270.76 30.7901C270.57 29.9101 270.34 28.9901 270.63 28.1101C270.46 27.3901 270.24 26.7101 270.41 25.9001C271.13 25.2201 270.22 24.3101 270.39 23.4301C271.02 22.2101 270.07 20.7201 270.52 19.3101C271.05 19.4101 271.42 18.7401 271.79 18.4401C273.19 18.2101 271.27 17.0501 270.98 16.5201C270.7 15.7001 269.84 15.8801 269.44 15.1801C268.87 13.7501 267.39 13.3801 266.44 12.3701C265.46 11.1901 263.6 12.0601 262.21 11.8301C258.75 11.6601 255.11 11.6701 251.62 11.7601C251.25 11.8001 250.98 11.8401 250.63 11.7401C249.81 12.2801 249.09 13.0901 248.28 13.7001C247.35 14.5201 246.39 15.3701 245.57 16.2301C245.26 16.7101 244.38 17.0501 244.49 17.6701C243.72 17.9401 244.92 19.7801 245.51 19.4401C245.51 23.3601 245.76 27.2201 245.66 31.1301C242.92 21.9101 240.54 32.0901 240.96 36.0901C237.88 30.7401 238.08 37.7101 237.93 40.0701C237.93 40.0501 237.93 40.0401 237.93 40.0201C237.91 40.2101 237.94 40.3901 237.96 40.5801C237.12 43.6601 244.82 42.1201 246.4 41.8101C250.37 41.8401 254.41 42.5401 258.42 41.9901C260.28 42.4901 262.12 41.9501 263.98 41.9301C265.97 41.6801 268.03 42.2301 269.97 41.7401ZM245.74 35.6101C245.65 37.2901 245.55 39.0001 245.56 40.6701C245.38 40.7801 245.31 41.0201 245.34 41.2201C244.57 41.2401 243.84 41.4601 243.08 41.4401C242.8 41.1601 242.14 41.1301 241.98 41.5501C241.31 41.8501 241.01 41.4601 240.44 41.3301C240.01 41.3701 239.68 41.6301 239.22 41.4401C239.04 41.3901 238.82 41.3001 238.72 41.1501C238.84 41.0701 238.99 41.0301 239.04 40.8801C239.2 40.2701 238.49 40.4301 238.74 39.4701C238.74 39.4901 238.74 39.5001 238.74 39.5201C238.98 38.0101 238.68 36.3901 239.2 34.9501C243.56 42.3201 240.71 32.3301 242.62 29.5501C242.87 29.0601 243.14 28.5601 243.48 28.1201C244.61 29.5401 244.6 31.9001 245.76 33.0901C245.63 33.9301 245.72 34.7801 245.74 35.6101ZM246.43 39.8101C246.4 39.8101 246.36 39.8101 246.33 39.8201C246.35 39.5901 246.37 39.3601 246.39 39.1201C247.89 39.2301 249.42 39.2401 250.95 39.2201H250.94C250.96 39.2201 250.97 39.2201 250.99 39.2201C253.18 39.3501 255.37 39.2601 257.56 39.2801C258.37 39.4101 260.28 38.8301 260.43 39.6901C255.77 39.7701 251.08 39.6801 246.43 39.8101ZM246.81 35.6201C246.73 35.0001 246.36 34.5301 246.51 33.8401C246.81 33.7201 246.78 33.3501 246.75 33.0801C246.49 32.3701 246.35 31.7801 246.71 31.0901C251.21 30.9101 255.63 31.0501 260.08 30.7101C259.94 39.9201 263.32 38.2901 253.61 38.4801H253.62C251.26 38.4101 248.91 38.3801 246.55 38.3401C246.23 37.3301 246.63 36.5301 246.81 35.6201ZM260.31 41.3701C259.53 41.5101 258.62 40.8501 257.96 41.2301C257.24 41.4401 256.43 41.0001 255.8 41.3501C254.89 41.6601 253.56 40.2101 252.98 41.3401C252.35 41.4801 251.92 41.2801 251.42 41.0001C250.78 41.0401 250.24 41.3601 249.55 41.0801C249.47 40.8301 249.2 40.7201 248.97 40.6701C248.72 40.6101 248.4 40.6101 248.25 40.8501C247.88 41.2101 247.02 40.8701 246.49 40.9101C246.49 40.8401 246.49 40.7701 246.49 40.6901V40.7001C246.49 40.6801 246.49 40.6501 246.49 40.6301C247.13 40.6701 247.77 40.5401 248.42 40.5601C250.52 40.6901 252.63 40.4101 254.73 40.4801C256.64 40.5601 258.57 40.6301 260.47 40.4801C260.5 40.7801 260.58 41.0801 260.69 41.3601C260.56 41.3801 260.44 41.3801 260.31 41.3701ZM260.96 32.4901C260.89 31.9301 261.01 31.3901 260.98 30.8301C262.75 30.7301 264.54 30.4501 266.25 30.8901C266.19 31.5501 266.32 32.2101 266.37 32.8501C266.11 32.7501 265.82 32.8001 265.55 32.7601C265.57 32.7601 265.58 32.7601 265.6 32.7601C265.11 32.7201 264.62 32.6901 264.12 32.6201H264.13C264.04 32.6001 263.95 32.5901 263.86 32.5701H263.87C262.96 32.3701 261.73 32.8901 260.96 32.4901ZM266.73 40.6101C266.56 41.7901 265.09 40.6101 264.4 40.9101C263.49 41.7201 262.3 40.3601 261.35 40.9001C261.2 40.1901 261.27 39.5001 261.16 38.7801C261.08 38.3101 261.69 38.1201 261.44 37.6301C261.08 37.1201 260.99 36.2401 261.33 35.7101C261.31 34.9901 260.79 34.2901 261.02 33.4501C262.79 33.3401 264.64 33.4101 266.32 33.7601C266.29 36.0401 266.72 38.3201 266.73 40.6101ZM266.92 30.0901C266.23 30.2601 266.26 29.7701 265.74 29.6701C265.03 29.8201 264.29 29.9701 263.54 29.8901C263.39 29.5601 262.94 29.5101 262.62 29.5501C262.13 29.9801 261.55 30.0701 260.86 30.0001C260.76 29.6801 260.37 29.6501 260.09 29.6501C259.42 29.8801 258.79 30.1501 258 30.0801C258.16 29.5001 257.41 29.3401 256.99 29.4901C256.45 29.8701 256 30.2201 255.24 30.1801C254.69 30.3101 254.48 29.8701 253.99 29.7601C253.69 29.6701 253.31 29.7401 253.22 30.0801C252.57 30.1901 251.96 29.9801 251.36 29.9001C250.78 30.5101 249.9 30.2801 249.22 29.9201C248.61 29.8601 246.82 30.7901 246.53 29.9701C246.48 28.9901 246.85 27.8601 246.48 26.9801C246.32 26.2001 246.61 25.5801 246.61 24.8601C246.42 24.1601 246.64 23.4601 246.64 22.7801C245.94 21.6701 246.7 19.9801 246.25 18.7401C247.84 17.3501 249.84 16.0501 251 14.3501C251.69 13.8701 252.59 14.2401 253.36 14.1301C253.34 14.1301 253.33 14.1301 253.31 14.1301C253.8 14.1201 254.26 14.1401 254.7 14.3301C255.53 14.0901 256.4 14.0601 257.12 14.5401C257.37 14.5901 257.67 14.5101 257.76 14.2501C258.31 14.1801 258.86 14.1501 259.41 14.2301C260.09 14.8201 260.99 13.9901 261.82 14.2901C262.23 14.4601 263.01 15.0601 263.15 14.2201C265.46 14.0001 266.72 16.1501 268.3 17.5601C270.09 18.6501 269.61 20.2101 269.65 22.0301C269.67 24.6701 269.51 27.2801 269.79 29.9201C269 30.2601 268.04 29.3701 267.46 30.0301C267.25 30.0601 267.09 30.0801 266.92 30.0901ZM267.3 37.0101C267.03 36.1901 267.62 35.7201 267.16 34.9701C267.08 34.5801 267.57 34.3201 267.34 33.9001C267.22 33.7201 267.09 33.6101 267.13 33.3701C267.15 32.9301 267.88 32.2601 267.09 32.0101C267.09 31.9601 267.08 31.9201 267.08 31.8701V31.8801C267.05 31.5501 267.06 31.2201 267.07 30.8901C267.98 30.6801 268.87 30.8001 269.79 30.7301C269.62 33.1101 269.75 35.4101 269.82 37.8101C269.18 37.5001 268.35 37.7301 267.65 37.6701C267.68 37.4201 267.56 37.1001 267.3 37.0101ZM269.45 41.0601C268.78 41.0601 268.11 41.2801 267.5 40.9401C267.67 40.4301 267.51 39.9101 267.65 39.3901C267.68 39.0301 267.33 38.8401 267.37 38.4701C267.9 38.5601 268.49 38.4501 269.04 38.4901C269.29 38.4701 269.55 38.6001 269.78 38.4501C269.76 38.7401 269.75 39.0301 269.73 39.3301C267.26 39.1601 267.13 40.5501 269.7 40.1501C269.7 40.4801 269.91 41.0101 269.45 41.0601Z" fill="#27456A"/>
</g>
<defs>
<clipPath id="clip0_300_227">
<rect width="408.58" height="46.84" fill="white"/>
</clipPath>
</defs>
</svg>
