<svg width="19" height="19" viewBox="0 0 19 19" fill="none" xmlns="http://www.w3.org/2000/svg">
<g clip-path="url(#clip0_300_344)">
<path d="M9.08 18.16C14.0947 18.16 18.16 14.0947 18.16 9.08C18.16 4.06525 14.0947 0 9.08 0C4.06525 0 0 4.06525 0 9.08C0 14.0947 4.06525 18.16 9.08 18.16Z" fill="#249E54"/>
<path fill-rule="evenodd" clip-rule="evenodd" d="M15.4001 8.60973L11.1801 4.38973C10.8701 4.07973 10.3801 4.07973 10.0701 4.38973L9.84008 4.60973C9.53008 4.91973 9.53008 5.40973 9.84008 5.71973L12.3401 8.21973H3.61008C3.18008 8.21973 2.83008 8.56973 2.83008 8.99973V9.31973C2.83008 9.74973 3.18008 10.0997 3.61008 10.0997H12.3801L9.87008 12.6097C9.57008 12.9097 9.57008 13.4097 9.87008 13.7097L10.0901 13.9297C10.3901 14.2297 10.8901 14.2297 11.1901 13.9297L15.3801 9.73973C15.5301 9.58973 15.6101 9.38973 15.6101 9.18973C15.6301 8.97973 15.5501 8.76973 15.4001 8.60973Z" fill="white"/>
</g>
<defs>
<clipPath id="clip0_300_344">
<rect width="18.16" height="18.16" fill="white"/>
</clipPath>
</defs>
</svg>
