<svg width="130" height="256" viewBox="0 0 130 256" fill="none" xmlns="http://www.w3.org/2000/svg">
<g clip-path="url(#clip0_287_2)">
<path d="M80.34 160.43L65.92 163.64L76.67 194.16L87.45 192.01L80.34 160.43ZM112.56 187.44L110.7 153.61L96.61 156.34L100.83 189.28C101.99 198.32 97.19 202.12 83.24 205.22L88.99 212.77C92.65 211.81 101.74 209.51 106.3 204.68C111.65 199.05 112.71 191.4 112.56 187.44ZM117.6 210.08C113.3 240.05 97.84 246.51 92.24 249.18L97.59 255.84C116.67 247.28 124.99 232.37 129.59 211.66L117.6 210.08ZM84.8 128.44C79.61 124.9 76.75 123.42 74.74 122.36L68.5 132.53C77.61 136.84 88.79 144.27 94.23 149.51L101.24 141.25C100.03 140.1 98.13 138.33 93.59 134.8C102.71 124.74 109.81 111.6 112.81 87.32L45.15 98.7L52.38 116.6L94.36 109.29C92.7 119.91 85.35 127.76 84.8 128.44ZM59.63 67.91C64.31 70.91 73.76 77.74 80.02 83.1L91.62 72.21C85.29 66.43 77.41 60.63 67.97 55.3C77.27 37.82 82.12 17.9 84.52 0L0 9.38L10.62 34.9L58.62 28.56C57.66 37.54 53.74 48.56 45.04 61.12C35.87 74.21 27.48 78.13 24.18 79.68L36.17 88.33C47.61 82.3 55.07 73.78 59.63 67.91Z" fill="white"/>
</g>
<defs>
<clipPath id="clip0_287_2">
<rect width="129.6" height="255.84" fill="white"/>
</clipPath>
</defs>
</svg>
